<?xml version="1.0" standalone="no"?>
<!DOCTYPE svg PUBLIC "-//W3C//DTD SVG 20010904//EN"
 "http://www.w3.org/TR/2001/REC-SVG-20010904/DTD/svg10.dtd">
<svg version="1.0" xmlns="http://www.w3.org/2000/svg"
 width="1024.000000pt" height="1024.000000pt" viewBox="0 0 1024.000000 1024.000000"
 preserveAspectRatio="xMidYMid meet">

<g transform="translate(0.000000,1024.000000) scale(0.100000,-0.100000)"
fill="#000000" stroke="none">
<path d="M3442 10221 c-22 -11 -31 -22 -28 -33 3 -14 -1 -16 -24 -12 -15 4
-31 1 -34 -5 -4 -6 -17 -11 -29 -11 -18 0 -19 -2 -7 -10 12 -8 11 -10 -7 -11
-44 -3 -67 -15 -57 -30 3 -5 10 -7 15 -4 15 10 10 -2 -8 -16 -11 -10 -14 -10
-9 -1 4 7 1 12 -9 12 -9 0 -14 -4 -10 -10 3 -5 -8 -16 -25 -25 -16 -8 -30 -18
-30 -21 0 -2 9 0 21 6 11 7 23 10 25 7 5 -4 -29 -26 -89 -57 -16 -8 -36 -27
-45 -42 -9 -15 -19 -28 -23 -28 -3 0 -12 -18 -19 -40 -7 -22 -15 -38 -18 -35
-3 2 -18 -23 -33 -56 -16 -33 -33 -58 -38 -55 -5 3 -11 -8 -15 -25 -3 -17 -10
-28 -16 -24 -5 3 -10 1 -10 -5 0 -6 -7 -18 -15 -26 -8 -8 -11 -22 -8 -32 3 -9
3 -14 -2 -10 -4 4 -17 -12 -27 -35 -11 -23 -31 -63 -44 -90 -13 -26 -25 -65
-26 -87 -1 -21 -5 -37 -10 -34 -5 3 -8 0 -7 -7 3 -20 -21 -79 -32 -79 -5 0 -9
-5 -9 -11 0 -5 5 -7 11 -3 8 4 8 1 1 -12 -5 -11 -8 -24 -5 -30 2 -6 -3 -17
-11 -23 -8 -7 -12 -19 -9 -27 3 -8 0 -14 -6 -14 -6 0 -8 -7 -4 -16 3 -9 0 -20
-8 -24 -9 -6 -13 -30 -11 -82 1 -41 -5 -91 -13 -113 -8 -25 -10 -44 -4 -50 5
-5 9 -14 9 -20 0 -5 -5 -3 -10 5 -7 11 -9 -1 -9 -40 0 -30 -2 -73 -6 -95 -8
-58 -9 -98 -1 -115 7 -18 4 -49 -8 -68 -4 -7 -4 -26 -1 -43 6 -24 4 -30 -6
-24 -9 6 -11 -5 -6 -51 4 -32 9 -70 12 -84 4 -14 8 -68 10 -120 2 -52 6 -106
10 -120 3 -14 6 -54 6 -90 1 -36 4 -69 7 -74 3 -5 5 -35 6 -67 1 -31 4 -60 7
-63 3 -3 4 -24 3 -46 -1 -22 1 -38 5 -36 3 2 7 -10 7 -27 3 -58 8 -82 19 -89
5 -4 -4 -8 -22 -8 -17 0 -43 -4 -57 -10 -34 -12 -76 -78 -81 -126 l-5 -39 12
40 c6 22 19 52 30 68 17 24 25 27 63 23 45 -3 66 -17 79 -51 7 -20 8 -20 22 0
13 18 14 17 8 -14 -8 -38 5 -51 49 -51 26 0 27 -1 13 -16 -18 -18 -19 -24 -7
-43 6 -9 11 -10 15 -2 4 6 2 11 -4 11 -6 0 -8 4 -5 10 14 23 30 -15 29 -69 -1
-33 4 -64 12 -75 8 -12 10 -24 4 -31 -5 -6 -5 -27 0 -50 5 -21 7 -43 4 -47 -3
-4 -2 -14 3 -20 11 -19 14 -118 3 -118 -6 0 -10 -5 -10 -11 0 -5 5 -7 12 -3 8
5 9 -6 5 -41 -4 -26 -3 -53 2 -59 6 -7 6 -17 -1 -26 -8 -12 -9 -12 -4 3 3 11
2 16 -4 12 -12 -8 -12 -16 0 -35 9 -13 11 -13 20 0 12 18 3 -71 -11 -108 -5
-13 -9 -33 -9 -45 1 -20 2 -20 11 -4 5 9 7 22 4 27 -3 6 1 10 10 10 14 0 14
-4 1 -35 -8 -19 -11 -35 -6 -35 6 0 6 -10 0 -26 -13 -33 -13 -104 1 -179 6
-33 13 -78 16 -100 2 -22 10 -43 16 -47 9 -6 8 -8 -1 -8 -11 0 -12 -11 -8 -47
4 -27 9 -106 11 -178 2 -71 9 -148 14 -170 15 -59 15 -61 -29 -63 -41 -3 -104
29 -143 72 l-19 21 14 -25 c24 -40 96 -79 151 -81 26 -1 47 -5 47 -8 2 -47 34
-177 45 -184 8 -4 15 -13 15 -20 0 -7 -4 -6 -10 3 -8 13 -10 13 -10 1 0 -26
39 -182 80 -323 l23 -77 -39 -58 c-124 -183 -528 -521 -702 -587 -243 -93
-1390 -463 -1787 -576 -180 -52 -526 -159 -578 -179 l-27 -11 0 -1900 0 -1900
5120 0 5120 0 -2 1807 -3 1807 -110 44 c-128 50 -536 188 -985 333 -173 55
-508 170 -745 254 -236 84 -503 177 -593 206 l-162 53 -108 89 c-187 155 -342
320 -453 482 -19 28 -38 52 -42 53 -4 2 -3 10 3 17 19 23 70 173 100 298 46
187 49 200 44 209 -3 5 -1 15 5 21 5 7 11 35 13 62 l3 50 52 0 c64 0 124 39
160 105 13 25 16 34 6 20 -33 -47 -84 -90 -107 -90 -12 0 -27 -5 -33 -11 -18
-18 -53 -1 -53 27 0 13 -4 24 -10 24 -5 0 -10 7 -10 16 0 8 -4 12 -10 9 -5 -3
-10 -1 -10 4 0 6 5 11 11 11 7 0 9 10 7 25 -3 13 -1 22 3 19 5 -3 9 13 9 35 0
23 -5 41 -11 41 -6 0 -8 -7 -5 -17 6 -14 3 -14 -15 3 -22 19 -22 19 -15 -3 4
-13 2 -24 -5 -29 -8 -4 -9 -3 -5 5 4 6 3 18 -4 26 -7 8 -7 15 -1 19 6 4 5 17
-2 36 -9 23 -9 35 1 50 6 11 12 25 12 32 0 7 -6 4 -13 -7 -11 -18 -13 -16 -18
25 -4 26 -6 -3 -5 -70 0 -63 4 -117 8 -120 4 -3 5 -15 2 -27 -5 -18 -9 -20
-24 -11 -9 6 -15 19 -13 28 3 10 0 21 -6 24 -7 5 -11 -2 -11 -16 0 -27 14 -51
26 -46 25 9 14 -70 -14 -98 -16 -17 -16 -18 1 -11 10 4 18 1 19 -6 5 -41 4
-66 -3 -62 -4 3 -5 14 -2 25 4 14 0 20 -11 20 -10 0 -15 -4 -11 -9 3 -5 1 -12
-5 -16 -5 -3 -10 -11 -10 -16 0 -6 5 -7 11 -3 8 5 8 1 0 -14 -6 -11 -11 -29
-11 -39 1 -13 5 -11 16 10 9 16 18 26 21 23 3 -3 1 -12 -5 -19 -7 -8 -9 -17
-5 -20 3 -4 2 -7 -3 -7 -5 0 -9 -24 -8 -52 1 -69 -6 -122 -16 -111 -5 4 -5 40
-1 78 5 39 7 72 5 74 -10 11 -17 -15 -20 -70 -2 -34 -8 -67 -14 -73 -5 -5 -10
-21 -9 -35 0 -26 0 -26 9 -3 5 12 11 22 12 22 3 0 3 -79 0 -117 -3 -34 -20
-28 -30 10 -8 28 -10 30 -18 13 -5 -13 -3 -21 4 -24 6 -2 8 -10 5 -18 -3 -8 0
-14 7 -14 6 0 3 -11 -9 -26 -12 -15 -21 -31 -21 -36 0 -5 -10 -18 -22 -29 -13
-10 -18 -18 -13 -19 6 0 11 -9 11 -20 0 -11 -5 -19 -11 -17 -5 2 -15 -10 -20
-27 -6 -17 -15 -30 -21 -29 -5 1 -11 -7 -11 -18 -2 -17 1 -18 13 -9 8 7 14 10
14 7 0 -8 -43 -81 -51 -87 -4 -3 -12 -24 -18 -47 -11 -39 -31 -68 -31 -44 0 5
5 13 11 16 5 4 8 12 6 18 -2 7 0 21 6 32 9 18 9 19 -7 6 -9 -8 -15 -20 -12
-27 3 -7 -2 -18 -10 -24 -8 -7 -14 -17 -14 -23 0 -17 -74 -107 -80 -97 -3 5
-23 -13 -44 -40 -36 -48 -56 -62 -56 -40 0 6 4 10 9 10 5 0 14 12 19 28 5 15
13 36 17 47 13 34 -11 4 -38 -47 -16 -29 -21 -48 -14 -48 7 0 1 -9 -12 -19
-16 -12 -21 -23 -16 -32 6 -11 5 -12 -5 -2 -12 11 -11 19 3 48 21 43 22 60 2
25 -8 -14 -14 -21 -15 -16 0 5 -9 -1 -20 -14 -23 -27 -26 -38 -6 -20 12 10 15
7 13 -13 -2 -25 -77 -105 -94 -100 -4 1 -21 -16 -36 -38 -16 -23 -31 -38 -34
-35 -4 3 1 14 9 23 8 10 19 25 23 33 6 12 5 13 -6 2 -26 -24 -30 -11 -5 19 14
17 26 36 26 42 0 6 -7 1 -16 -12 -12 -16 -19 -19 -24 -11 -5 9 -9 9 -14 1 -4
-6 -2 -11 4 -11 6 0 8 -5 3 -12 -4 -7 -8 -26 -9 -41 -2 -29 -32 -60 -48 -50
-5 3 1 13 12 22 16 11 21 25 19 48 -1 18 -6 33 -11 33 -5 0 -3 7 4 15 9 10 9
15 1 15 -11 0 -15 -12 -11 -43 1 -11 -7 -21 -18 -23 -10 -3 -27 -23 -36 -45
-16 -35 -77 -109 -91 -109 -7 0 -1 12 29 55 17 25 17 28 2 16 -15 -13 -19 -13
-26 -1 -5 8 -12 11 -17 7 -4 -5 -1 -12 7 -17 12 -8 13 -13 3 -30 -7 -11 -13
-28 -13 -37 0 -15 -2 -15 -9 -4 -6 9 -6 22 0 34 12 22 4 51 -12 42 -6 -4 -8
-12 -6 -19 3 -7 -4 -23 -15 -37 l-19 -24 6 25 c5 21 3 20 -16 -9 -18 -27 -20
-37 -11 -52 7 -11 8 -19 4 -19 -5 0 -14 10 -21 23 -11 21 -11 21 -6 -5 5 -28
-8 -39 -19 -15 -3 6 -4 3 -1 -8 2 -11 -3 -33 -11 -50 l-14 -30 5 38 c4 23 2
37 -5 37 -6 0 -9 -4 -5 -9 3 -5 0 -13 -6 -16 -5 -4 -8 -14 -5 -22 7 -17 -14
-41 -30 -36 -7 2 -14 -3 -17 -11 -4 -10 -1 -13 9 -9 10 4 12 0 8 -11 -4 -10
-13 -14 -23 -11 -12 4 -17 -2 -19 -21 -2 -28 -21 -68 -22 -46 0 18 -20 5 -20
-13 0 -17 -30 -55 -43 -55 -4 0 -3 10 3 23 10 20 9 20 -11 -3 -11 -14 -33 -31
-48 -38 -14 -7 -18 -10 -9 -8 17 5 45 -20 34 -31 -3 -3 -6 -1 -6 5 0 7 -4 12
-10 12 -5 0 -10 -6 -10 -14 0 -8 -7 -17 -16 -20 -13 -5 -14 -4 -6 7 7 8 9 16
6 20 -10 9 -34 -4 -34 -19 0 -8 -5 -14 -11 -14 -7 0 -9 9 -6 21 5 20 5 20 -14
3 -10 -9 -18 -24 -18 -33 1 -13 2 -13 6 2 5 19 23 14 23 -8 0 -17 -29 -13 -41
6 -7 11 -9 10 -9 -4 0 -24 -31 -62 -51 -63 -12 -1 -15 5 -12 20 4 19 3 19 -9
5 -7 -9 -19 -14 -27 -11 -9 3 -11 -2 -6 -18 6 -19 4 -21 -14 -15 -15 4 -21 2
-21 -8 0 -16 -72 -43 -88 -33 -6 3 -12 1 -14 -6 -3 -9 -9 -8 -22 5 -20 19 -32
22 -41 7 -4 -6 1 -7 12 -3 13 4 15 3 7 -6 -16 -17 -74 -32 -68 -17 3 7 -4 12
-15 12 -15 0 -17 -3 -9 -13 8 -10 3 -13 -21 -13 -18 0 -30 3 -28 8 3 4 -9 8
-26 9 -18 0 -26 -1 -19 -4 19 -7 14 -23 -8 -23 -11 0 -19 5 -17 12 1 6 -7 13
-18 15 -16 3 -17 2 -5 -6 8 -5 12 -12 9 -15 -9 -9 -99 6 -99 16 0 5 9 6 20 3
12 -4 20 -2 20 5 0 6 -4 8 -10 5 -6 -3 -10 -2 -10 4 0 6 -15 1 -34 -10 -22
-13 -37 -16 -41 -9 -3 5 -14 10 -23 10 -15 0 -15 -2 -2 -10 8 -5 11 -10 5 -11
-5 0 -20 -2 -32 -5 -12 -2 -25 1 -28 6 -4 6 -11 7 -17 4 -6 -4 -14 -1 -18 6
-4 6 -27 13 -51 15 -24 2 -46 4 -49 5 -3 1 -10 3 -17 4 -7 0 -19 10 -27 21
-14 18 -15 18 -16 3 0 -11 -7 -18 -17 -17 -25 1 -71 17 -55 18 7 1 10 6 7 11
-3 6 -1 10 5 10 6 0 8 5 4 11 -4 7 -9 7 -13 2 -16 -24 -43 -22 -67 4 -13 14
-24 22 -24 16 0 -5 11 -20 25 -33 14 -13 25 -28 25 -34 0 -5 -6 -3 -12 6 -18
22 -78 41 -79 25 0 -7 -4 -3 -9 8 -5 12 -9 14 -9 6 -1 -12 -3 -12 -13 1 -7 9
-24 18 -37 20 -21 3 -43 27 -67 75 -3 7 -10 13 -15 13 -13 0 -6 -23 11 -37 12
-10 9 -10 -15 0 -54 22 -67 34 -70 60 -4 33 -13 47 -31 47 -8 0 -14 4 -14 9 0
5 -14 8 -31 6 -26 -4 -29 -2 -24 15 4 11 2 20 -4 20 -5 0 -12 -8 -14 -17 -3
-11 -5 -7 -6 10 0 16 -5 26 -10 22 -5 -3 -12 4 -16 14 -4 12 -12 18 -21 14 -9
-3 -14 1 -14 11 0 9 -7 19 -16 23 -8 3 -13 12 -10 19 3 8 1 14 -4 14 -5 0 -7
7 -4 15 4 8 1 15 -4 15 -6 0 -13 -8 -15 -17 -3 -12 -5 -9 -6 8 0 15 -8 32 -16
39 -8 7 -12 16 -9 21 3 5 14 -1 25 -13 l20 -23 -17 32 c-10 18 -21 29 -24 24
-11 -16 -52 -19 -78 -5 -15 8 -23 14 -18 14 4 0 1 11 -8 25 -9 13 -16 30 -16
37 0 7 -9 19 -20 26 -12 7 -18 17 -15 23 10 15 -18 6 -32 -11 -7 -8 -13 -10
-13 -5 0 6 -5 3 -11 -5 -9 -13 -10 -13 -6 0 2 8 -6 20 -17 25 -15 8 -21 20
-21 43 0 34 -18 54 -42 45 -7 -3 -13 -14 -13 -25 0 -10 -5 -16 -10 -13 -6 4
-8 11 -5 16 4 5 -1 12 -9 15 -9 3 -16 15 -16 26 0 13 5 18 14 15 10 -4 13 -1
9 9 -3 7 -10 14 -16 14 -6 0 -21 10 -34 22 -27 25 -31 11 -5 -18 18 -19 26
-58 10 -48 -4 3 -8 10 -8 15 0 11 -40 70 -55 81 -5 4 -17 12 -25 18 -12 8 -12
12 -2 18 10 7 8 14 -8 33 l-21 24 11 -24 c16 -32 0 -47 -31 -29 -36 20 -69 50
-64 58 3 4 -4 15 -15 25 -11 10 -20 24 -20 31 0 8 -7 11 -17 8 -12 -4 -14 -3
-6 3 8 6 6 21 -11 55 -13 26 -26 45 -29 42 -3 -3 -8 3 -11 14 -4 11 -17 23
-30 26 -13 3 -31 17 -40 31 -22 33 -9 32 28 -2 19 -19 24 -21 15 -7 -8 11 -32
37 -55 57 -26 23 -45 52 -53 79 -7 24 -17 52 -22 63 -8 18 -9 17 -5 -4 3 -17
2 -21 -6 -13 -5 5 -11 36 -12 67 -2 36 -8 60 -17 66 -8 5 -10 9 -5 9 5 0 3 6
-4 14 -6 8 -17 13 -24 10 -8 -3 -16 2 -20 12 -5 14 -4 15 9 4 12 -10 15 -10
15 4 0 10 5 14 10 11 7 -4 7 2 1 17 -6 13 -13 45 -16 72 -5 36 -9 45 -16 35
-9 -13 -5 21 6 58 2 7 0 15 -5 18 -6 4 -10 19 -10 36 0 18 -5 29 -14 29 -7 0
-19 7 -26 15 -10 12 -10 15 2 15 8 0 19 -5 26 -12 8 -8 12 -8 12 -1 0 6 -7 13
-15 17 -9 3 -12 12 -8 22 4 12 3 15 -5 10 -13 -8 -17 6 -5 17 3 4 14 -4 23
-19 14 -20 19 -22 23 -10 4 9 -1 19 -9 24 -13 7 -13 13 -2 37 l13 28 6 -24 c6
-21 7 -20 8 10 1 26 -2 32 -15 27 -10 -4 -13 -2 -8 6 5 7 2 9 -9 5 -18 -7 -27
11 -27 57 0 18 -5 37 -11 43 -8 8 -8 13 0 17 16 10 13 29 -4 23 -11 -5 -12 -1
-5 18 5 14 7 31 4 38 -3 8 2 19 10 26 16 13 13 57 -6 94 -5 9 -6 23 -2 29 10
15 22 -17 23 -59 1 -17 6 -35 12 -38 12 -8 4 53 -13 97 -6 15 -7 35 -4 44 4 9
1 23 -5 30 -8 10 -8 22 0 45 14 41 14 44 -2 30 -11 -8 -13 -3 -12 27 1 20 5
45 9 55 5 9 4 17 -2 17 -5 0 -16 -17 -25 -37 -14 -36 -15 -36 -16 -11 -1 15 4
30 9 33 6 4 10 12 9 18 -1 7 1 20 6 31 4 10 4 21 -2 25 -6 3 -15 20 -20 36 -6
17 -15 29 -20 28 -16 -3 -12 40 5 53 9 8 12 14 6 14 -5 0 -15 -5 -22 -12 -14
-14 -24 -7 -13 10 4 7 16 14 27 14 12 1 20 10 20 25 1 13 -2 23 -7 23 -5 0 -9
-5 -9 -12 0 -8 -3 -9 -10 -2 -7 7 -7 21 1 43 12 33 4 56 -11 32 -5 -10 -8 -6
-7 12 1 14 5 23 9 21 11 -7 16 20 7 37 -4 9 -6 30 -4 48 3 26 1 32 -11 27 -8
-3 -12 -2 -9 4 3 6 13 10 21 10 17 0 17 5 3 32 -9 17 -13 18 -21 7 -8 -12 -9
-11 -5 1 2 8 11 14 19 12 19 -3 17 36 -3 49 -10 6 -10 9 -1 9 6 0 12 12 12 28
0 21 -2 24 -10 12 -6 -9 -10 -10 -10 -3 0 7 6 16 14 20 9 5 16 32 19 73 9 105
18 154 30 170 7 9 4 8 -9 -3 l-21 -17 19 57 c11 32 25 64 30 71 8 10 6 11 -8
5 -15 -5 -17 -4 -8 8 12 15 25 81 14 74 -3 -2 -6 5 -6 15 0 10 3 17 7 14 4 -2
9 3 13 11 3 8 1 17 -4 20 -12 7 -4 75 9 88 5 5 7 16 4 23 -3 8 -1 14 4 14 4 0
9 17 10 38 6 105 13 155 24 168 7 9 8 14 1 14 -6 0 -9 10 -6 23 3 12 8 43 11
69 3 26 9 45 14 43 10 -7 8 38 -2 45 -4 3 -1 20 8 39 12 24 13 35 5 40 -8 5
-6 15 7 36 9 17 20 40 23 52 6 22 5 22 -21 5 l-26 -16 28 28 c15 16 27 35 27
42 0 7 8 18 18 23 11 7 13 10 3 11 -11 0 -11 3 -1 15 9 11 10 19 3 26 -8 8
-13 7 -17 0 -4 -6 -14 -11 -23 -11 -12 0 -11 5 7 20 13 11 20 20 15 20 -4 0
-2 7 6 16 10 13 10 17 -2 25 -10 6 -11 9 -1 9 7 0 11 4 8 9 -3 5 1 14 9 21 8
7 15 17 15 23 0 5 -9 2 -20 -8 -20 -18 -21 -18 -14 0 6 14 4 16 -7 10 -12 -8
-12 -6 0 8 7 9 18 14 24 10 6 -4 7 -1 2 7 -4 7 -2 16 6 21 11 7 10 9 -5 9 -18
0 -18 1 -2 19 13 15 14 20 4 23 -11 4 -11 8 0 20 10 13 10 17 -2 21 -17 7 -16
28 2 50 10 12 10 17 1 23 -9 5 -9 10 2 18 8 6 21 20 29 31 14 19 14 19 -5 4
-11 -8 -33 -21 -50 -27 -26 -11 -24 -6 20 34 28 26 43 42 35 37 -8 -5 -24 -13
-35 -17 -16 -5 -15 -2 5 13 14 11 21 23 17 27 -4 4 -17 -1 -29 -12 -23 -19
-23 -19 -5 2 19 23 23 39 5 28 -7 -4 -8 -3 -4 4 4 6 13 9 20 6 8 -3 17 0 22 7
5 8 3 10 -7 4 -7 -5 -4 7 9 28 12 20 17 37 11 37 -6 0 -7 5 -4 10 4 6 10 8 15
5 4 -3 14 3 21 13 13 15 12 16 -4 3 -15 -12 -17 -11 -14 5 1 11 6 25 11 32 7
11 4 12 -12 3 -36 -19 -33 -12 10 31 30 28 35 37 18 28 -24 -13 -24 -12 -10 5
8 10 14 20 13 21 -3 7 10 44 16 44 3 0 19 10 35 23 25 20 26 23 8 23 -11 0
-18 -4 -16 -8 3 -4 -6 -12 -18 -19 -21 -11 -22 -11 -9 4 7 10 10 17 5 17 -5 0
-1 5 9 11 9 5 17 16 17 23 0 14 58 71 79 78 8 2 16 14 17 26 3 16 0 20 -14 16
-15 -4 -14 -3 2 8 10 7 36 27 58 45 21 18 44 31 51 29 7 -1 8 -1 4 2 -4 2 -3
10 4 18 6 8 16 11 22 7 5 -3 7 -1 4 4 -4 6 5 18 18 27 14 9 40 31 57 49 26 27
30 29 24 10 -6 -18 -4 -22 9 -17 9 4 14 13 11 20 -3 8 0 11 8 8 8 -3 17 -1 21
5 3 6 25 12 48 12 36 1 38 2 14 8 -25 5 -26 7 -9 17 14 9 27 8 58 -6 22 -10
51 -20 64 -23 14 -2 19 -2 13 0 -7 3 -13 9 -13 14 0 6 -4 8 -9 5 -11 -7 -41 3
-41 13 0 4 21 4 48 1 29 -3 46 -10 45 -18 -2 -7 2 -12 7 -12 6 0 10 8 10 17 0
13 3 14 12 5 7 -7 19 -12 28 -12 13 0 13 1 0 10 -11 7 -5 9 22 8 31 -1 36 -4
26 -15 -10 -12 -7 -12 18 -2 42 19 55 33 21 25 -16 -4 -26 -3 -24 1 3 4 -17 6
-43 5 -33 -3 -56 1 -72 12 -12 9 -17 16 -11 16 7 0 14 -4 18 -9 3 -6 41 -9 85
-7 44 2 77 -1 74 -5 -2 -4 1 -11 7 -15 18 -11 119 -14 145 -3 14 5 23 5 20 0
-3 -4 27 -9 66 -10 81 -2 87 6 12 15 -62 7 -65 11 -13 16 44 4 86 -11 82 -30
-2 -7 2 -12 8 -12 7 0 9 10 5 26 -4 15 -3 23 2 20 5 -3 12 -19 15 -36 4 -16
12 -30 18 -30 8 0 8 4 0 14 -7 9 -8 17 -2 20 5 3 12 0 15 -6 3 -7 4 0 0 16 -5
26 -3 28 10 17 9 -7 14 -16 12 -20 -3 -4 -1 -13 5 -21 6 -11 8 -5 5 17 -2 18
1 30 5 27 5 -3 9 1 9 8 0 10 2 10 9 -1 5 -8 8 -19 7 -25 -2 -6 -1 -7 2 -3 2 4
11 0 19 -10 15 -18 14 -11 -2 29 -8 20 19 19 38 -2 9 -11 8 -11 -7 0 -17 13
-19 13 -14 0 3 -8 13 -15 24 -15 10 -1 36 -8 58 -18 57 -25 57 -21 -2 15 -28
18 -52 37 -52 41 0 5 11 2 25 -7 32 -21 41 -20 24 2 -7 9 2 4 21 -13 19 -16
29 -23 23 -15 -19 21 -16 32 6 18 11 -7 18 -15 15 -20 -3 -4 11 -17 29 -30 19
-12 43 -37 52 -55 12 -22 36 -42 72 -59 29 -15 56 -24 59 -22 2 3 -16 13 -41
22 -24 10 -54 29 -65 44 -19 24 -20 26 -4 35 13 7 21 5 30 -7 9 -13 13 -14 17
-4 4 10 8 10 16 -2 6 -8 11 -10 11 -4 0 5 -4 14 -9 20 -5 5 -11 27 -15 49 -4
28 -3 34 4 20 5 -11 9 -28 9 -37 1 -10 10 -32 22 -50 l21 -33 -6 30 c-6 27 -5
28 7 13 8 -10 19 -18 24 -18 5 0 18 -9 28 -20 10 -11 24 -20 32 -20 7 0 -1 13
-19 30 -18 16 -28 30 -21 30 6 0 27 -14 45 -31 34 -32 107 -74 114 -66 3 2
-15 14 -40 25 -42 20 -76 55 -76 77 0 5 7 1 15 -9 17 -23 20 -14 4 17 -6 13 2
8 21 -13 l30 -35 -12 30 c-6 17 -17 37 -23 45 -25 32 -26 43 -1 15 14 -16 25
-35 26 -41 0 -14 50 -61 50 -47 0 5 -9 18 -19 27 -10 10 -21 26 -24 36 -3 13
6 8 29 -16 33 -32 56 -44 53 -26 -4 26 1 34 16 22 13 -11 13 -15 3 -23 -9 -6
-8 -7 5 -3 10 3 22 6 25 6 4 0 -3 8 -15 18 -12 9 -25 31 -28 47 l-6 30 15 -30
c12 -24 15 -26 16 -10 0 15 5 11 16 -14 20 -47 28 -34 10 17 -9 23 -11 42 -6
42 6 0 10 -4 10 -9 0 -5 7 -12 16 -15 12 -5 14 -1 9 17 -5 17 -4 19 4 7 6 -8
11 -25 11 -36 0 -17 5 -20 25 -16 18 3 25 0 25 -11 0 -33 16 -24 18 11 4 46 9
52 20 21 l9 -24 7 22 c4 13 13 20 21 17 8 -3 11 -13 8 -21 -5 -13 -3 -13 16
-4 12 7 25 19 28 27 3 7 10 11 15 8 7 -4 7 -9 0 -13 -5 -3 -6 -15 -1 -26 6
-17 8 -17 8 -2 1 9 5 17 11 17 5 0 7 8 3 18 -4 11 1 8 15 -8 12 -14 21 -20 22
-15 0 6 -6 17 -12 24 -9 9 -9 12 -1 7 6 -3 13 -3 16 1 2 5 3 3 2 -2 -2 -6 3
-15 10 -22 10 -9 14 -7 20 10 4 12 7 26 6 30 -1 5 3 6 8 3 5 -4 14 2 20 11 8
15 10 15 11 3 0 -9 -5 -21 -12 -28 -9 -9 -9 -12 0 -12 7 0 12 4 12 9 0 11 31
24 39 16 3 -3 -1 -10 -9 -15 -13 -9 -13 -10 0 -10 8 0 21 -9 27 -19 12 -19 14
-18 50 15 20 19 43 32 50 30 7 -3 13 -1 13 4 0 6 5 10 11 10 8 0 8 -4 -1 -15
-6 -8 -9 -23 -5 -36 7 -21 8 -21 26 7 23 35 25 25 4 -19 l-16 -32 25 30 c14
17 26 33 26 38 0 4 5 7 11 7 7 0 5 -9 -4 -24 -19 -28 -10 -44 9 -18 10 12 13
13 14 3 0 -10 3 -11 13 -2 18 14 30 2 16 -16 -9 -10 -8 -13 5 -13 10 0 16 9
17 23 0 16 2 18 7 7 4 -9 15 -16 25 -16 32 -2 36 -4 40 -21 4 -17 5 -17 6 0 1
19 9 21 29 9 10 -7 8 -15 -9 -38 -17 -24 -15 -23 9 4 18 21 32 29 36 23 4 -6
16 -11 27 -11 10 0 19 -4 19 -8 0 -9 71 -34 77 -28 2 2 -14 11 -37 20 -41 16
-56 32 -19 21 31 -10 88 -8 102 3 6 5 23 9 37 7 14 -1 37 -3 53 -4 15 0 27 -6
27 -12 0 -8 -15 -10 -47 -6 -34 4 -41 3 -25 -3 12 -5 38 -10 57 -12 24 -1 34
-6 31 -15 -3 -7 0 -15 6 -19 7 -4 8 -3 4 4 -4 7 -3 12 2 12 10 0 24 -24 26
-45 4 -28 28 -95 35 -100 5 -3 3 16 -5 42 -17 55 -14 68 16 76 16 4 19 2 11
-7 -11 -14 -5 -26 13 -26 6 0 4 5 -4 11 -12 9 -12 10 3 5 10 -3 21 -6 23 -6 2
0 4 -8 5 -17 0 -11 3 -13 6 -6 3 10 8 9 20 -2 8 -8 19 -13 24 -10 5 4 9 1 9
-4 0 -6 6 -11 13 -11 8 0 14 -6 15 -12 2 -31 9 -45 32 -68 14 -14 33 -23 42
-22 16 3 23 -8 19 -30 0 -4 6 -5 13 -2 8 3 17 -3 20 -14 4 -10 26 -34 51 -52
25 -19 45 -39 45 -45 0 -6 11 -22 25 -35 17 -16 23 -30 19 -43 -4 -12 -2 -17
4 -13 5 3 16 -2 23 -11 10 -12 10 -14 2 -9 -18 10 -16 -10 3 -28 10 -11 11
-16 3 -16 -8 0 -6 -7 5 -19 10 -11 15 -25 10 -32 -4 -7 -3 -10 3 -6 6 4 19 -3
29 -15 19 -21 19 -21 -3 -9 -32 16 -29 2 5 -26 l27 -23 -30 10 -30 10 30 -25
c17 -14 31 -34 31 -45 1 -21 -11 -27 -21 -10 -3 6 -1 10 6 10 8 0 8 4 -1 15
-7 8 -17 15 -22 15 -6 0 -5 -7 2 -15 7 -8 9 -15 4 -15 -4 0 3 -11 15 -24 16
-17 19 -25 10 -28 -9 -3 -4 -16 16 -44 l29 -39 -32 29 c-18 17 -32 25 -32 19
0 -5 9 -18 20 -28 25 -23 19 -30 -12 -15 -21 12 -21 10 5 -17 15 -17 27 -34
25 -39 -1 -5 4 -20 11 -34 l14 -25 -25 23 c-39 35 -45 26 -8 -13 19 -19 29
-35 23 -35 -6 0 -13 7 -17 15 -11 30 -25 16 -15 -15 7 -18 16 -27 22 -23 7 3
9 3 5 -2 -4 -4 -3 -14 3 -22 9 -9 8 -13 0 -13 -6 0 -11 4 -11 10 0 15 -48 43
-60 35 -13 -8 5 -35 23 -35 6 0 2 7 -9 15 -10 8 -14 15 -8 15 6 0 17 -7 24
-15 7 -8 9 -15 4 -15 -4 0 3 -11 16 -25 29 -31 15 -33 -19 -2 -14 12 -20 15
-13 6 6 -9 8 -20 4 -24 -4 -5 -2 -6 3 -3 6 3 19 -6 29 -21 11 -14 13 -20 6
-13 -19 16 -35 16 -21 -1 6 -8 7 -18 3 -22 -4 -5 -1 -5 6 -1 7 4 12 1 12 -8 0
-10 -6 -13 -17 -9 -17 6 -17 5 -2 -13 9 -10 14 -25 11 -33 -2 -8 1 -19 9 -25
8 -6 21 -20 29 -31 14 -19 14 -20 -6 -2 -25 21 -31 21 -31 2 0 -8 4 -12 9 -9
4 3 8 2 9 -3 0 -4 2 -19 5 -32 4 -21 3 -22 -13 -10 -16 12 -17 12 -6 -2 7 -9
9 -20 5 -24 -4 -5 -1 -5 6 -1 9 5 12 3 11 -5 -2 -8 3 -25 10 -38 11 -19 11
-22 -1 -16 -10 6 -11 5 0 -6 15 -17 16 -33 0 -23 -7 4 -2 -7 11 -24 12 -18 24
-46 26 -62 2 -17 7 -36 11 -42 5 -7 3 -8 -6 -3 -9 5 -10 2 -6 -11 16 -52 28
-185 17 -198 -6 -7 -4 -18 6 -31 16 -20 16 -20 9 0 -6 16 -5 17 5 8 9 -9 9
-16 1 -26 -14 -16 -10 -62 7 -97 11 -24 11 -24 -3 -6 -18 22 -22 5 -6 -24 7
-13 7 -21 0 -25 -9 -6 -7 -43 7 -140 2 -16 4 -56 4 -87 0 -32 5 -61 11 -64 8
-5 9 -1 4 12 -4 10 -4 15 1 11 4 -5 8 -22 9 -39 1 -22 -1 -27 -8 -17 -6 10 -7
6 -2 -11 5 -14 7 -46 6 -72 0 -26 3 -50 7 -52 5 -3 6 -17 3 -31 -3 -17 0 -25
9 -25 12 0 12 -2 1 -9 -12 -7 -11 -14 2 -39 17 -34 22 -56 6 -32 -7 11 -9 8
-8 -15 1 -16 6 -36 11 -42 6 -8 6 -13 0 -13 -17 0 -2 -50 16 -51 10 0 11 -2 3
-6 -6 -2 -9 -9 -6 -14 3 -6 0 -17 -7 -25 -10 -13 -10 -21 3 -47 32 -64 32
-120 0 -95 -14 11 -13 8 2 -16 13 -20 15 -31 7 -39 -13 -13 -15 -31 -3 -23 12
7 6 -165 -7 -197 -16 -40 -14 -43 10 -16 21 23 21 24 15 2 -4 -12 -2 -32 4
-44 12 -21 6 -70 -8 -68 -4 1 -10 0 -14 -1 -5 -1 -14 -3 -20 -4 -9 -1 -13 -22
-12 -73 1 -69 15 -110 35 -97 10 6 12 -9 2 -19 -3 -4 -12 1 -19 11 -9 11 -13
13 -14 4 0 -7 -4 -10 -10 -7 -14 9 -6 -51 10 -70 17 -20 33 -8 27 21 -2 13 0
24 4 24 8 0 13 -23 10 -42 0 -5 4 -8 9 -8 6 0 8 -10 6 -22 -12 -60 -16 -142
-6 -132 8 8 16 57 19 122 1 8 6 10 14 6 8 -6 8 -3 -1 9 -8 9 -10 22 -6 29 5 7
9 32 10 55 1 24 5 68 9 98 3 30 3 55 -2 55 -5 0 -9 -8 -10 -17 -1 -10 -4 -31
-7 -48 -3 -16 -7 -54 -8 -84 -1 -46 -3 -51 -15 -35 -9 12 -10 21 -2 30 7 9 2
18 -17 33 -16 12 -21 21 -12 21 8 0 19 -5 25 -11 9 -9 12 -3 11 22 -1 43 -9
58 -19 33 -7 -17 -8 -17 -8 4 -1 24 9 28 27 10 13 -13 15 -3 14 56 -1 25 1 26
12 11 9 -13 15 -15 20 -7 4 7 1 12 -6 12 -10 0 -10 2 1 9 15 10 20 152 7 210
-5 20 -4 31 1 28 11 -7 11 58 0 69 -4 4 -7 1 -7 -7 -1 -10 -4 -8 -11 4 -6 10
-8 21 -5 24 3 4 6 1 6 -5 0 -6 7 -9 15 -6 11 5 12 11 4 25 -7 14 -6 19 2 19 9
0 9 3 0 14 -9 10 -9 15 -1 18 8 2 8 11 0 32 -9 26 -9 27 5 16 14 -12 22 -1 9
13 -7 7 -11 146 -4 142 3 -2 5 47 6 108 0 62 3 146 6 187 4 41 7 86 7 100 1
19 3 22 11 10 12 -20 24 -6 12 15 -5 9 -7 29 -4 43 5 24 6 24 12 7 6 -15 9 -9
15 25 6 36 9 41 16 25 7 -17 8 -16 8 8 1 37 31 94 40 78 6 -9 12 -7 22 5 9 12
10 15 2 10 -7 -4 -13 -2 -13 3 0 6 5 11 11 11 6 0 19 10 28 22 13 16 28 21 56
20 39 -2 39 -1 19 18 -16 16 -25 18 -51 11 -27 -8 -31 -7 -26 7 3 10 10 22 14
28 5 6 6 13 4 16 -3 3 -1 18 5 33 6 15 13 53 16 86 3 32 11 82 18 110 9 33 11
63 5 87 -10 43 -3 75 14 65 8 -5 8 -2 0 9 -7 8 -10 18 -7 21 3 3 7 27 9 54 1
26 3 61 3 76 1 16 6 26 10 23 5 -3 8 44 6 104 -2 81 1 108 9 104 9 -5 9 -4 1
5 -13 14 -1 77 17 95 5 6 9 17 8 25 0 11 -3 10 -9 -4 -6 -14 -8 -6 -5 26 1 26
6 53 10 60 6 8 4 10 -5 4 -12 -8 -11 49 3 138 2 15 1 27 -2 27 -4 0 -8 11 -9
25 -1 14 3 25 8 25 14 0 12 27 -2 33 -9 4 -9 6 -1 6 6 1 9 10 6 24 -4 18 -3
19 7 7 9 -12 11 -10 6 10 -3 14 -8 54 -11 90 -3 36 -8 76 -11 90 -3 14 -8 36
-10 50 -8 41 -16 65 -26 71 -4 3 -10 19 -12 35 -3 16 -18 55 -36 87 -17 33
-27 56 -21 52 7 -3 8 0 5 9 -3 9 -9 14 -13 12 -3 -2 -7 16 -7 40 -1 43 -34
126 -54 139 -5 3 -10 15 -10 26 0 11 -4 18 -9 15 -5 -3 -11 4 -15 17 -3 12
-22 39 -41 61 -20 21 -34 44 -32 51 7 16 -3 28 -36 43 -20 8 -27 17 -23 28 3
8 2 12 -3 9 -5 -3 -12 4 -16 15 -3 11 -10 20 -15 20 -5 0 -15 18 -21 40 -7 21
-16 37 -20 34 -5 -3 -9 2 -9 10 0 9 -4 16 -10 16 -5 0 -10 7 -10 16 0 8 -4 12
-10 9 -5 -3 -10 1 -10 9 0 9 -5 16 -10 16 -6 0 -28 17 -50 38 -71 68 -88 82
-99 82 -6 0 -11 4 -11 9 0 5 -12 11 -27 14 -16 3 -46 18 -68 34 l-40 28 -1675
1 c-1525 1 -1678 0 -1708 -15z m5 -27 c-3 -3 -12 -4 -19 -1 -8 3 -5 6 6 6 11
1 17 -2 13 -5z m1393 -541 c-11 -17 -11 -17 -6 0 3 10 7 28 7 40 2 22 2 22 6
0 2 -12 -1 -30 -7 -40z m890 48 c0 -5 -7 -12 -16 -15 -14 -5 -15 -4 -4 9 14
17 20 19 20 6z m-1445 -19 c-3 -3 -11 0 -18 7 -9 10 -8 11 6 5 10 -3 15 -9 12
-12z m520 -31 c15 -22 25 -46 22 -53 -3 -9 -7 -6 -13 7 -4 11 -16 31 -26 44
-16 22 -23 41 -14 41 2 0 16 -18 31 -39z m665 2 c-11 -17 -11 -17 -6 0 3 10 6
24 7 30 0 9 2 9 5 0 3 -7 0 -20 -6 -30z m-1439 9 c-7 -2 -18 1 -23 6 -8 8 -4
9 13 5 13 -4 18 -8 10 -11z m109 8 c12 -8 9 -10 -12 -10 -16 0 -28 5 -28 10 0
13 20 13 40 0z m85 -8 c-3 -3 -11 0 -18 7 -9 10 -8 11 6 5 10 -3 15 -9 12 -12z
m679 -37 c17 -25 17 -28 2 -15 -17 13 -18 13 -14 -5 2 -11 10 -19 16 -17 7 1
12 -5 12 -14 0 -12 -3 -14 -13 -6 -7 6 -22 9 -34 6 -21 -6 -42 24 -25 35 5 3
13 22 17 41 5 20 10 29 13 20 3 -8 14 -28 26 -45z m816 34 c-7 -11 -14 -18
-17 -15 -3 3 0 12 7 21 18 21 23 19 10 -6z m-1347 4 c-7 -2 -21 -2 -30 0 -10
3 -4 5 12 5 17 0 24 -2 18 -5z m1367 -22 c-6 -12 -15 -21 -21 -21 -5 0 -2 11
8 24 21 28 29 27 13 -3z m-1535 1 c-3 -3 -11 0 -18 7 -9 10 -8 11 6 5 10 -3
15 -9 12 -12z m84 -19 c2 -2 -4 -3 -15 -3 -27 0 -48 16 -39 30 5 8 13 6 28 -7
12 -10 24 -19 26 -20z m1060 -6 c1 -5 -3 -5 -9 -2 -5 3 -10 16 -9 28 0 21 1
21 9 2 5 -11 9 -24 9 -28z m775 14 c-28 -28 -44 -31 -44 -10 0 6 4 8 8 5 4 -2
19 4 32 15 36 27 38 23 4 -10z m156 25 c0 -3 -4 -8 -10 -11 -5 -3 -10 -1 -10
4 0 6 5 11 10 11 6 0 10 -2 10 -4z m-2335 -16 c3 -5 2 -10 -4 -10 -5 0 -13 5
-16 10 -3 6 -2 10 4 10 5 0 13 -4 16 -10z m250 -18 c-3 -3 -11 0 -18 7 -9 10
-8 11 6 5 10 -3 15 -9 12 -12z m762 -4 c-3 -8 -6 -5 -6 6 -1 11 2 17 5 13 3
-3 4 -12 1 -19z m223 -22 c24 -27 29 -35 14 -28 -20 11 -54 53 -54 68 0 4 1 5
3 3 1 -2 18 -22 37 -43z m-380 24 c0 -5 -2 -10 -4 -10 -3 0 -8 5 -11 10 -3 6
-1 10 4 10 6 0 11 -4 11 -10z m420 -32 c0 -14 -19 1 -31 25 -12 22 -12 22 10
3 11 -11 21 -23 21 -28z m980 21 c7 12 43 9 52 -4 5 -7 14 -6 28 3 31 19 38
14 10 -8 -24 -19 -86 -28 -76 -11 3 4 -8 8 -24 7 -17 -1 -30 -4 -30 -8 0 -3
-9 -4 -20 -1 -11 3 -20 9 -20 12 0 16 13 19 43 10 18 -5 33 -5 37 0z m197 5
c-3 -3 -12 -4 -19 -1 -8 3 -5 6 6 6 11 1 17 -2 13 -5z m-1342 -44 c10 -16 -12
-12 -29 6 -9 8 -16 18 -16 20 0 7 38 -15 45 -26z m-46 -14 c-3 -3 -11 5 -18
17 -13 21 -12 21 5 5 10 -10 16 -20 13 -22z m2416 24 c3 -5 1 -10 -4 -10 -6 0
-11 5 -11 10 0 6 2 10 4 10 3 0 8 -4 11 -10z m-3815 -75 c-7 -8 -17 -15 -23
-15 -6 0 -2 7 9 15 25 19 30 19 14 0z m3079 -129 c10 -12 8 -13 -8 -9 -12 3
-18 9 -15 14 7 12 10 11 23 -5z m111 -106 c0 -5 -2 -10 -4 -10 -3 0 -8 5 -11
10 -3 6 -1 10 4 10 6 0 11 -4 11 -10z m-3480 -135 c-7 -8 -17 -15 -23 -15 -6
0 -2 8 9 19 22 21 33 19 14 -4z m-10 -119 c0 -2 -7 -7 -16 -10 -8 -3 -12 -2
-9 4 6 10 25 14 25 6z m3670 -17 c0 -6 -4 -7 -10 -4 -5 3 -10 11 -10 16 0 6 5
7 10 4 6 -3 10 -11 10 -16z m-3780 -113 c0 -2 -8 -10 -17 -17 -16 -13 -17 -12
-4 4 13 16 21 21 21 13z m20 -21 c-7 -8 -18 -15 -24 -15 -6 0 -2 7 8 15 25 19
32 19 16 0z m40 -129 c0 -2 -7 -7 -16 -10 -8 -3 -12 -2 -9 4 6 10 25 14 25 6z
m-40 -181 c-7 -8 -17 -15 -23 -15 -6 0 -2 7 9 15 25 19 30 19 14 0z m0 -78 c0
-2 -10 -12 -21 -23 -22 -19 -22 -19 -8 4 12 19 29 30 29 19z m-3 -152 c0 -8
-6 -15 -13 -15 -7 0 -18 -8 -23 -17 -6 -10 -11 -14 -11 -9 0 8 39 56 45 56 1
0 2 -7 2 -15z m3871 -220 c-3 -3 -9 2 -12 12 -6 14 -5 15 5 6 7 -7 10 -15 7
-18z m-4055 -1006 c-5 -5 -6 11 -3 34 4 41 5 41 8 8 2 -18 0 -37 -5 -42z
m4186 -293 c7 -8 8 -17 3 -20 -6 -3 -12 3 -15 14 -6 24 -4 25 12 6z m-4271
-151 c0 -14 -4 -25 -8 -25 -6 0 -7 37 -1 48 4 9 9 -2 9 -23z m42 -45 c0 -11
-4 -20 -8 -20 -4 0 -8 9 -8 20 0 11 4 20 8 20 4 0 8 -9 8 -20z m4290 -66 c0
-4 -9 2 -20 14 -11 12 -20 26 -20 33 0 6 9 0 20 -14 11 -14 20 -29 20 -33z
m-4324 16 c-4 -23 -3 -29 7 -24 9 6 9 4 1 -7 -6 -8 -14 -21 -17 -29 -3 -8 -4
1 -2 20 1 19 3 43 4 53 0 9 4 17 7 17 4 0 4 -14 0 -30z m54 21 c0 -5 -7 -12
-16 -15 -14 -5 -15 -4 -4 9 14 17 20 19 20 6z m4231 -26 c5 4 6 0 3 -8 -3 -8
2 -20 11 -27 8 -7 15 -17 15 -23 0 -6 -11 4 -25 23 -14 19 -25 39 -24 44 0 6
3 5 6 -2 2 -6 9 -10 14 -7z m-4171 -71 c0 -8 -4 -12 -10 -9 -5 3 -10 13 -10
21 0 8 5 12 10 9 6 -3 10 -13 10 -21z m4200 -19 c6 17 7 17 13 2 3 -9 2 -17
-4 -17 -5 0 -7 -12 -4 -27 5 -20 -1 -13 -19 20 -14 27 -26 54 -26 60 0 7 8 -3
17 -22 14 -28 18 -31 23 -16z m-4315 -6 c-5 -15 -4 -19 4 -15 6 4 11 15 12 24
0 11 2 12 6 4 5 -14 -14 -42 -28 -42 -5 0 -9 11 -9 25 0 14 5 25 11 25 6 0 8
-9 4 -21z m26 -52 c-10 -9 -11 -8 -5 6 3 10 9 15 12 12 3 -3 0 -11 -7 -18z
m4289 -42 c6 13 9 15 9 5 0 -8 -3 -21 -8 -29 -7 -11 -11 -10 -20 7 -6 11 -11
27 -10 34 0 7 5 2 11 -12 10 -24 10 -24 18 -5z m0 -49 c0 -3 -4 -8 -10 -11 -5
-3 -10 -1 -10 4 0 6 5 11 10 11 6 0 10 -2 10 -4z m-31 -79 c0 -9 -2 -9 -6 1
-2 6 -11 12 -19 12 -8 0 -14 5 -14 10 0 7 6 7 20 0 11 -6 20 -16 19 -23z
m-4135 6 c-7 -2 -10 -12 -7 -22 3 -11 -2 -21 -12 -25 -13 -5 -15 -2 -9 17 8
29 25 49 33 41 3 -4 1 -9 -5 -11z m-114 -58 c0 -5 -5 -3 -10 5 -5 8 -10 20
-10 25 0 6 5 3 10 -5 5 -8 10 -19 10 -25z m4210 5 c0 -5 -5 -10 -11 -10 -5 0
-7 5 -4 10 3 6 8 10 11 10 2 0 4 -4 4 -10z m-4163 -132 c-2 -18 -4 -4 -4 32 0
36 2 50 4 33 2 -18 2 -48 0 -65z m60 53 c0 -11 -5 -18 -9 -15 -4 3 -5 11 -1
19 7 21 12 19 10 -4z m-120 -48 c-3 -10 -5 -2 -5 17 0 19 2 27 5 18 2 -10 2
-26 0 -35z m4220 -1 c3 -25 2 -26 -11 -9 -8 11 -12 25 -9 33 7 20 16 9 20 -24z
m-4220 -44 c-3 -8 -6 -5 -6 6 -1 11 2 17 5 13 3 -3 4 -12 1 -19z m90 0 c-3 -8
-6 -5 -6 6 -1 11 2 17 5 13 3 -3 4 -12 1 -19z m-77 -22 c0 -3 -4 -8 -10 -11
-5 -3 -10 -1 -10 4 0 6 5 11 10 11 6 0 10 -2 10 -4z m48 -66 c0 -9 -3 -7 -8 5
-5 11 -8 29 -8 40 0 16 2 15 8 -5 4 -14 8 -32 8 -40z m-45 -4 c9 -23 29 -178
24 -183 -3 -2 -10 36 -17 84 -7 48 -17 94 -23 101 -6 8 -6 12 1 12 5 0 12 -6
15 -14z m107 4 c0 -5 -4 -10 -10 -10 -5 0 -10 5 -10 10 0 6 5 10 10 10 6 0 10
-4 10 -10z m-30 -25 c0 -8 -2 -15 -4 -15 -2 0 -6 7 -10 15 -3 8 -1 15 4 15 6
0 10 -7 10 -15z m-41 -40 c0 -5 -4 -3 -9 5 -5 8 -9 22 -9 30 0 16 17 -16 18
-35z m26 15 c9 -28 -3 -60 -23 -60 -14 0 -14 2 -3 9 9 6 12 20 9 40 -5 34 7
42 17 11z m4107 -2 c-7 -7 -12 -8 -12 -2 0 14 12 26 19 19 2 -3 -1 -11 -7 -17z
m-4062 -23 c7 -9 8 -15 2 -15 -5 0 -12 7 -16 15 -3 8 -4 15 -2 15 2 0 9 -7 16
-15z m4071 -8 c-10 -9 -11 -8 -5 6 3 10 9 15 12 12 3 -3 0 -11 -7 -18z m-24
-19 c-3 -8 -6 -5 -6 6 -1 11 2 17 5 13 3 -3 4 -12 1 -19z m-4018 -29 c-13 -26
-20 -21 -12 9 3 12 9 19 14 16 5 -3 4 -14 -2 -25z m-42 -1 c-3 -8 -6 -5 -6 6
-1 11 2 17 5 13 3 -3 4 -12 1 -19z m-17 -4 c0 -8 -5 -12 -10 -9 -6 4 -8 11 -5
16 9 14 15 11 15 -7z m4100 -26 c0 -16 -3 -19 -11 -11 -6 6 -8 16 -5 22 11 17
16 13 16 -11z m-4120 3 c0 -6 -4 -12 -8 -15 -5 -3 -9 1 -9 9 0 8 4 15 9 15 4
0 8 -4 8 -9z m4142 -46 c-2 -19 -8 -32 -13 -30 -4 3 -6 12 -4 20 3 8 7 22 10
30 8 26 11 16 7 -20z m-4107 15 c3 -5 1 -10 -4 -10 -6 0 -11 5 -11 10 0 6 2
10 4 10 3 0 8 -4 11 -10z m4075 -20 c0 -11 -2 -20 -4 -20 -2 0 -6 9 -9 20 -3
11 -1 20 4 20 5 0 9 -9 9 -20z m-4110 -24 c0 -5 -7 -3 -15 4 -8 7 -12 17 -9
22 7 10 24 -9 24 -26z m30 8 c0 -8 -4 -12 -10 -9 -5 3 -10 10 -10 16 0 5 5 9
10 9 6 0 10 -7 10 -16z m-20 -60 c0 -3 -7 -1 -15 6 -8 7 -15 17 -15 22 0 5 7
3 15 -6 8 -8 15 -18 15 -22z m40 -19 c0 -5 -5 -3 -10 5 -5 8 -10 20 -10 25 0
6 5 3 10 -5 5 -8 10 -19 10 -25z m40 -35 c0 -5 -7 -7 -15 -4 -8 4 -12 10 -9
15 6 11 24 2 24 -11z m4017 -22 c-3 -7 -5 -2 -5 12 0 14 2 19 5 13 2 -7 2 -19
0 -25z m-4100 -10 c-3 -8 -6 -5 -6 6 -1 11 2 17 5 13 3 -3 4 -12 1 -19z m4070
-25 c-3 -10 -5 -2 -5 17 0 19 2 27 5 18 2 -10 2 -26 0 -35z m-4005 14 c-4 -14
-7 -16 -13 -5 -12 19 -11 25 5 25 8 0 11 -8 8 -20z m4025 -19 c-3 -8 -6 -5 -6
6 -1 11 2 17 5 13 3 -3 4 -12 1 -19z m-4005 -30 c-7 -7 -12 -8 -12 -2 0 14 12
26 19 19 2 -3 -1 -11 -7 -17z m-65 -20 c-3 -8 -6 -5 -6 6 -1 11 2 17 5 13 3
-3 4 -12 1 -19z m79 -36 c-12 -11 -18 7 -10 30 l8 23 4 -23 c2 -13 1 -26 -2
-30z m3890 -124 c5 -7 3 -8 -6 -3 -9 5 -11 1 -6 -16 3 -13 3 -18 0 -11 -3 6
-10 9 -16 6 -6 -4 -5 2 1 15 13 24 17 25 27 9z m-41 -57 c-3 -6 -11 -8 -17 -5
-6 4 -5 9 3 15 16 10 23 4 14 -10z m-3826 -143 c13 -38 0 -26 -17 15 -7 16 -8
26 -3 23 5 -3 14 -20 20 -38z m25 -54 c3 -8 2 -12 -4 -9 -6 3 -10 10 -10 16 0
14 7 11 14 -7z m3791 -31 c-9 -15 -13 -19 -10 -8 4 11 10 29 13 40 3 11 7 14
9 8 3 -7 -3 -24 -12 -40z m-3743 -89 c9 -24 11 -48 6 -60 -7 -18 -8 -18 -6 1
0 11 -1 27 -5 35 -9 24 -19 75 -14 70 3 -3 12 -23 19 -46z m133 11 c3 -30 3
-30 -8 -5 -6 14 -16 29 -22 33 -6 5 -2 7 9 5 13 -2 20 -13 21 -33z m3571 -12
c-8 -15 -15 -25 -16 -21 0 12 23 58 27 54 3 -2 -2 -17 -11 -33z m-3526 -38
c14 -19 14 -19 -2 -6 -10 7 -18 18 -18 24 0 6 1 8 3 6 1 -2 9 -13 17 -24z
m3501 -22 c-12 -20 -14 -14 -5 12 4 9 9 14 11 11 3 -2 0 -13 -6 -23z m-3616
-63 c14 -27 23 -50 21 -50 -6 0 -56 84 -56 93 0 17 12 3 35 -43z m-48 -7 c-3
-10 -5 -4 -5 12 0 17 2 24 5 18 2 -7 2 -21 0 -30z m3618 -89 c-35 -148 -46
-187 -50 -182 -2 2 9 60 25 128 17 69 33 136 36 149 3 13 7 21 10 19 2 -3 -7
-54 -21 -114z m-195 51 c-45 -46 -64 -56 -54 -30 4 8 12 15 20 15 7 0 23 14
36 30 12 17 26 30 32 30 6 0 -10 -20 -34 -45z m7 -40 c-7 -13 -14 -20 -15 -14
-2 5 2 16 8 24 18 21 20 18 7 -10z m-3112 -5 c3 -5 2 -10 -4 -10 -5 0 -13 5
-16 10 -3 6 -2 10 4 10 5 0 13 -4 16 -10z m87 -80 c12 -19 28 -44 37 -55 9
-12 4 -9 -10 6 -15 15 -36 30 -48 34 -12 3 -26 16 -33 28 -10 21 -10 21 7 7
17 -14 17 -14 7 7 -7 12 -17 25 -22 28 -6 3 -10 11 -10 17 0 17 48 -31 72 -72z
m-282 50 c6 -11 8 -20 6 -20 -3 0 -10 9 -16 20 -6 11 -8 20 -6 20 3 0 10 -9
16 -20z m3250 10 c0 -5 -5 -10 -11 -10 -5 0 -7 5 -4 10 3 6 8 10 11 10 2 0 4
-4 4 -10z m-57 -57 c-7 -18 -39 -53 -49 -53 -4 0 -1 7 6 15 17 20 5 32 -15 15
-19 -16 -20 -4 -1 15 10 10 16 11 24 3 8 -8 13 -7 18 5 3 9 10 17 15 17 4 0 5
-8 2 -17z m-95 -55 c-2 -7 -13 -23 -25 -37 -12 -14 -19 -29 -16 -35 3 -6 2 -8
-2 -3 -5 4 -17 0 -27 -10 -10 -9 -18 -11 -18 -5 0 6 14 20 30 32 17 12 30 27
30 34 0 11 19 36 27 36 2 0 2 -5 1 -12z m-2684 -14 c3 -8 2 -12 -4 -9 -6 3
-10 10 -10 16 0 14 7 11 14 -7z m2560 -8 c-10 -8 -21 -12 -24 -10 -5 6 21 24
34 24 6 0 1 -6 -10 -14z m-2613 -33 c13 -16 12 -17 -3 -4 -17 13 -22 21 -14
21 2 0 10 -8 17 -17z m59 -16 c0 -5 -4 -5 -10 -2 -5 3 -10 14 -10 23 0 15 2
15 10 2 5 -8 10 -19 10 -23z m-26 -13 c3 -8 2 -12 -4 -9 -6 3 -10 10 -10 16 0
14 7 11 14 -7z m2566 6 c0 -5 -5 -10 -11 -10 -5 0 -7 5 -4 10 3 6 8 10 11 10
2 0 4 -4 4 -10z m-2591 -34 c-3 -3 -11 5 -18 17 -13 21 -12 21 5 5 10 -10 16
-20 13 -22z m2553 4 c-6 -16 -11 -20 -16 -11 -4 6 -2 19 5 27 16 20 21 12 11
-16z m78 16 c0 -2 -7 -9 -15 -16 -13 -11 -14 -10 -9 4 5 14 24 23 24 12z
m-2470 -24 c0 -10 6 -24 13 -32 6 -8 1 -6 -13 5 -14 11 -27 21 -29 22 -1 1 0
6 4 12 10 17 25 13 25 -7z m2420 -1 c-15 -30 -30 -35 -17 -6 7 14 16 25 20 25
4 0 3 -9 -3 -19z m64 -12 c-3 -5 -10 -7 -15 -3 -5 3 -7 10 -3 15 3 5 10 7 15
3 5 -3 7 -10 3 -15z m-2546 -24 c-3 -3 -9 2 -12 12 -6 14 -5 15 5 6 7 -7 10
-15 7 -18z m2492 1 c0 -2 -8 -10 -17 -17 -16 -13 -17 -12 -4 4 13 16 21 21 21
13z m-165 -16 c3 -5 1 -10 -4 -10 -6 0 -11 5 -11 10 0 6 2 10 4 10 3 0 8 -4
11 -10z m67 -17 l-6 -28 -7 25 c-5 19 -7 20 -8 6 -1 -11 -4 -17 -7 -13 -10 10
4 37 19 37 10 0 13 -8 9 -27z m-102 7 c0 -5 -2 -10 -4 -10 -3 0 -8 5 -11 10
-3 6 -1 10 4 10 6 0 11 -4 11 -10z m-2200 -21 c0 -6 -4 -7 -10 -4 -5 3 -10 11
-10 16 0 6 5 7 10 4 6 -3 10 -11 10 -16z m2225 1 c3 -5 -1 -10 -10 -10 -9 0
-13 5 -10 10 3 6 8 10 10 10 2 0 7 -4 10 -10z m109 -9 c-10 -10 -21 -16 -24
-14 -3 3 4 11 14 19 28 20 33 17 10 -5z m26 -16 c-7 -8 -17 -15 -23 -15 -6 0
-2 8 9 19 22 21 33 19 14 -4z m-103 -7 c-3 -8 -6 -5 -6 6 -1 11 2 17 5 13 3
-3 4 -12 1 -19z m-2139 -28 c12 -19 11 -20 -8 -8 -11 7 -20 16 -20 20 0 15 15
8 28 -12z m2142 -4 c0 -3 -4 -8 -10 -11 -5 -3 -10 -1 -10 4 0 6 5 11 10 11 6
0 10 -2 10 -4z m-190 -111 c-7 -9 -15 -13 -19 -10 -3 3 1 10 9 15 21 14 24 12
10 -5z m-1810 -57 c0 -4 -4 -8 -9 -8 -6 0 -12 4 -15 8 -3 5 1 9 9 9 8 0 15 -4
15 -9z m83 -41 c4 3 7 1 7 -6 0 -17 -32 -10 -38 9 -4 12 -3 13 10 3 8 -7 18
-10 21 -6z m32 -27 c3 -5 1 -10 -4 -10 -6 0 -11 5 -11 10 0 6 2 10 4 10 3 0 8
-4 11 -10z m2215 -25 c-13 -14 -26 -23 -28 -20 -3 2 -17 -15 -32 -38 -28 -43
-41 -56 -119 -127 -25 -22 -42 -43 -38 -46 4 -4 7 -2 7 4 0 7 5 12 12 12 7 0
22 12 34 28 12 15 25 24 28 21 3 -3 -9 -23 -27 -44 -17 -22 -25 -35 -17 -31 8
5 -3 -10 -25 -33 -21 -22 -35 -41 -29 -41 5 0 15 5 22 12 6 6 14 9 18 6 3 -4
-6 -14 -20 -23 -14 -10 -26 -22 -26 -28 0 -6 -19 -31 -42 -55 -24 -25 -34 -40
-23 -34 11 6 29 20 40 32 11 12 29 26 40 32 11 6 0 -10 -24 -35 -24 -25 -40
-50 -36 -56 4 -7 1 -10 -7 -9 -7 2 -13 -4 -13 -12 0 -8 -12 -24 -26 -35 -14
-11 -24 -25 -22 -31 2 -5 -17 -31 -43 -57 l-46 -47 34 7 33 6 -19 -21 c-11
-12 -26 -22 -35 -23 -10 0 -11 -3 -4 -5 7 -3 22 0 34 7 22 12 22 11 -2 -19
-13 -17 -30 -31 -38 -31 -10 -1 -11 -5 -3 -14 12 -14 -3 -40 -30 -50 -12 -4
-18 -17 -18 -37 0 -19 -7 -34 -20 -42 -11 -7 -20 -18 -20 -24 0 -6 -11 -21
-25 -34 -13 -12 -22 -26 -20 -31 3 -4 2 -9 -2 -11 -21 -9 -82 -109 -87 -141
-1 -9 -13 -27 -26 -39 -22 -21 -23 -23 -6 -26 15 -3 16 -6 5 -13 -12 -8 -11
-12 3 -22 16 -13 16 -15 0 -31 -16 -17 -16 -18 3 -8 11 6 29 20 40 32 11 12
65 63 120 112 86 77 81 72 -34 -40 -111 -109 -153 -142 -247 -199 -164 -96
-254 -170 -469 -387 -164 -165 -186 -180 -70 -46 l30 35 -40 -37 c-30 -28 -44
-35 -55 -28 -8 5 -24 7 -35 3 -18 -5 -18 -5 -2 11 19 19 23 31 7 21 -19 -12
-80 -15 -80 -5 0 7 -6 8 -19 0 -25 -13 -41 -13 -21 0 9 6 10 10 3 10 -23 0
-35 -39 -24 -72 19 -53 5 -41 -18 16 -44 107 -123 195 -264 293 -55 38 -79 75
-108 163 -26 79 -89 209 -127 259 -48 66 -134 133 -219 173 -84 38 -115 60
-45 31 85 -35 158 -76 194 -108 42 -39 50 -42 42 -20 -4 8 -9 13 -13 11 -7 -4
-51 40 -51 51 0 5 -4 9 -10 9 -5 1 -13 2 -18 3 -4 0 -13 11 -21 24 l-14 22 22
-20 23 -20 -13 30 c-7 17 -29 44 -47 61 -24 22 -32 37 -28 50 6 21 4 40 -5 37
-10 -3 -6 32 5 40 7 6 6 7 -3 5 -8 -3 -31 11 -50 29 -20 19 -57 51 -83 71 -27
20 -48 41 -48 46 0 5 15 -4 33 -22 57 -55 54 -35 -3 23 -30 30 -50 55 -45 55
5 0 -4 14 -20 30 -16 17 -25 30 -19 30 5 0 -2 9 -16 20 -24 18 -24 19 -3 14
24 -7 51 -33 44 -43 -5 -6 75 -71 112 -92 36 -21 15 0 -44 41 -33 23 -58 44
-55 47 3 3 19 -5 37 -18 53 -37 22 -2 -34 40 -55 41 -64 50 -124 121 -21 25
-30 39 -20 31 12 -9 17 -10 17 -2 0 15 34 -1 69 -33 21 -19 23 -19 14 -2 -6
11 -35 35 -64 55 -30 20 -54 41 -54 46 1 6 -17 25 -40 43 -60 50 -62 53 -40
50 11 -2 22 -8 25 -13 6 -13 56 -55 65 -55 3 0 3 5 -1 12 -4 7 -3 8 5 4 6 -4
9 -11 6 -16 -3 -5 4 -15 15 -23 11 -8 38 -31 60 -51 22 -20 40 -32 40 -27 0
12 117 -71 208 -146 70 -59 98 -76 111 -69 5 3 16 -3 26 -14 10 -11 22 -20 27
-20 5 0 29 -14 54 -31 24 -16 49 -27 54 -24 6 4 9 1 8 -6 -2 -7 9 -19 25 -26
15 -8 27 -19 27 -25 0 -5 6 -8 13 -5 7 3 24 -1 38 -9 28 -16 17 -19 -14 -3
-20 9 -19 8 3 -11 l24 -22 10 22 c5 11 15 19 23 16 21 -8 15 2 -8 15 -12 6
-19 7 -15 1 10 -16 -32 -2 -46 16 -12 14 -10 14 10 3 13 -7 26 -10 29 -7 3 3
-16 15 -42 26 -26 11 -45 23 -42 26 3 3 44 -13 90 -35 47 -23 93 -41 102 -41
8 0 66 -15 128 -32 97 -28 127 -32 227 -32 81 0 132 5 174 18 32 9 73 16 90
15 17 -1 44 3 59 10 16 6 36 11 45 11 9 0 30 7 46 15 16 9 31 13 34 11 2 -3
19 5 36 18 34 26 90 56 103 56 4 0 -12 -13 -37 -29 -25 -15 -52 -36 -60 -47
-13 -16 -12 -16 15 2 91 62 144 94 152 92 4 -2 24 9 43 23 19 14 53 36 75 49
31 19 37 20 25 6 -18 -23 113 73 204 148 39 33 80 66 90 75 19 16 19 15 2 -11
-10 -15 -26 -30 -35 -33 -10 -3 -29 -17 -42 -32 l-24 -27 25 17 c14 10 34 22
45 28 11 7 36 30 55 53 19 22 27 35 18 27 -26 -19 -22 -8 4 15 12 10 18 13 13
5 -5 -9 -3 -12 6 -9 8 3 13 10 12 15 -1 6 10 21 25 34 25 22 26 22 8 2 -11
-13 -15 -23 -10 -23 14 0 97 82 126 126 37 53 112 126 102 99 -6 -19 -5 -18
17 3 32 30 38 28 9 -3z m-2200 -26 c0 -6 -4 -7 -10 -4 -5 3 -10 11 -10 16 0 6
5 7 10 4 6 -3 10 -11 10 -16z m-469 -126 c13 -16 12 -17 -3 -4 -17 13 -22 21
-14 21 2 0 10 -8 17 -17z m2555 -31 c-17 -16 -18 -16 -5 5 7 12 15 20 18 17 3
-2 -3 -12 -13 -22z m-2486 -18 c0 -2 -9 0 -20 6 -11 6 -20 13 -20 16 0 2 9 0
20 -6 11 -6 20 -13 20 -16z m43 -36 c14 -13 42 -39 64 -59 22 -20 57 -48 79
-62 21 -13 50 -36 63 -51 27 -29 51 -36 30 -8 -13 15 -12 16 3 4 9 -8 15 -19
12 -26 -3 -7 19 -29 51 -51 30 -21 55 -40 55 -42 0 -12 -67 36 -133 96 -42 39
-83 71 -90 71 -13 0 -177 149 -165 150 4 0 18 -10 31 -22z m13 -50 l29 -33
-32 29 c-31 28 -38 36 -30 36 2 0 16 -15 33 -32z m364 -208 c5 8 11 6 20 -5
11 -13 10 -14 -6 -9 -19 7 -19 7 0 -14 10 -12 22 -19 26 -17 4 3 11 -2 14 -11
4 -10 13 -13 25 -9 11 3 22 1 26 -4 4 -7 -1 -8 -12 -5 -13 4 -11 0 7 -16 l25
-22 -40 22 c-50 28 -165 120 -165 133 0 5 16 -5 36 -23 25 -21 39 -28 44 -20z
m170 -85 c17 -9 30 -17 30 -20 0 -4 -71 24 -79 31 -11 10 23 2 49 -11z m-9
-32 c13 -15 12 -15 -8 -4 -24 12 -29 21 -14 21 5 0 15 -7 22 -17z m189 -49 c0
-9 -28 -3 -46 11 -17 13 -16 14 14 4 17 -6 32 -13 32 -15z m-599 -11 c13 -16
12 -17 -3 -4 -17 13 -22 21 -14 21 2 0 10 -8 17 -17z m799 -13 c8 -5 11 -10 5
-10 -5 0 -17 5 -25 10 -8 5 -10 10 -5 10 6 0 17 -5 25 -10z m335 -10 c-11 -5
-27 -9 -35 -9 -9 0 -8 4 5 9 11 5 27 9 35 9 9 0 8 -4 -5 -9z m-1080 -20 c16
-17 16 -20 3 -15 -9 4 -19 13 -22 21 -7 19 -2 18 19 -6z m702 14 c-3 -3 -12
-4 -19 -1 -8 3 -5 6 6 6 11 1 17 -2 13 -5z m263 -4 c0 -5 -7 -7 -15 -4 -8 4
-15 8 -15 10 0 2 7 4 15 4 8 0 15 -4 15 -10z m-135 -24 c49 -11 53 -14 25 -14
-19 0 -60 8 -90 19 -56 20 -42 19 65 -5z m95 15 c0 -4 -11 -6 -25 -3 -14 2
-25 6 -25 8 0 2 11 4 25 4 14 0 25 -4 25 -9z m118 -18 c-10 -2 -26 -2 -35 0
-10 3 -2 5 17 5 19 0 27 -2 18 -5z m-1043 -23 c10 -11 16 -20 13 -20 -3 0 -13
9 -23 20 -10 11 -16 20 -13 20 3 0 13 -9 23 -20z m928 3 c-7 -2 -19 -2 -25 0
-7 3 -2 5 12 5 14 0 19 -2 13 -5z m-883 -38 c11 -13 10 -14 -4 -9 -9 3 -16 10
-16 15 0 13 6 11 20 -6z m-85 -103 c-3 -3 -11 0 -18 7 -9 10 -8 11 6 5 10 -3
15 -9 12 -12z m2020 -72 c-14 -27 -28 -50 -30 -50 -3 0 6 23 20 50 14 28 28
50 30 50 3 0 -6 -22 -20 -50z"/>
<path d="M4869 9633 c0 -10 -2 -26 -4 -36 -2 -9 0 -15 4 -13 8 5 14 66 6 66
-3 0 -5 -8 -6 -17z"/>
<path d="M6463 4028 c-15 -20 -25 -38 -20 -38 3 0 12 11 21 25 17 26 16 35 -1
13z"/>
<path d="M3890 3826 c0 -2 8 -10 18 -17 15 -13 16 -12 3 4 -13 16 -21 21 -21
13z"/>
<path d="M6266 3815 c-11 -8 -15 -15 -9 -15 6 0 16 7 23 15 16 19 11 19 -14 0z"/>
<path d="M6260 3769 c-30 -33 -84 -89 -120 -126 l-65 -66 70 61 c72 62 168
163 173 182 3 14 3 14 -58 -51z"/>
<path d="M3975 3690 c33 -33 61 -60 64 -60 2 0 2 2 0 4 -2 2 -26 29 -54 60
-27 31 -54 56 -59 56 -6 0 16 -27 49 -60z"/>
<path d="M6249 3698 c-12 -23 -12 -23 10 -4 23 21 26 26 11 26 -5 0 -15 -10
-21 -22z"/>
<path d="M6210 3605 c-7 -9 -8 -15 -2 -15 5 0 12 7 16 15 3 8 4 15 2 15 -2 0
-9 -7 -16 -15z"/>
<path d="M4115 3580 c10 -11 20 -20 23 -20 3 0 -3 9 -13 20 -10 11 -20 20 -23
20 -3 0 3 -9 13 -20z"/>
<path d="M6200 3570 c-8 -5 -12 -12 -9 -15 4 -3 12 1 19 10 14 17 11 19 -10 5z"/>
<path d="M4050 3537 c0 -2 15 -14 33 -27 l32 -23 -24 26 c-21 23 -41 35 -41
24z"/>
<path d="M5855 3480 c-3 -6 1 -7 9 -4 18 7 21 14 7 14 -6 0 -13 -4 -16 -10z"/>
<path d="M4160 3416 c0 -2 8 -10 18 -17 15 -13 16 -12 3 4 -13 16 -21 21 -21
13z"/>
<path d="M4695 3360 c3 -5 11 -10 16 -10 6 0 7 5 4 10 -3 6 -11 10 -16 10 -6
0 -7 -4 -4 -10z"/>
<path d="M5570 3350 c-13 -8 -12 -10 3 -10 9 0 17 5 17 10 0 12 -1 12 -20 0z"/>
<path d="M4676 3335 c10 -8 24 -14 29 -14 6 0 1 6 -9 14 -11 8 -24 15 -30 15
-5 0 -1 -7 10 -15z"/>
<path d="M5460 3330 c-13 -8 -13 -10 2 -10 9 0 20 5 23 10 8 13 -5 13 -25 0z"/>
<path d="M4720 3321 c0 -10 75 -44 88 -40 6 2 -12 14 -39 26 -27 12 -49 18
-49 14z"/>
<path d="M6065 3310 c-3 -5 -2 -10 4 -10 5 0 13 5 16 10 3 6 2 10 -4 10 -5 0
-13 -4 -16 -10z"/>
<path d="M5118 3283 c7 -3 16 -2 19 1 4 3 -2 6 -13 5 -11 0 -14 -3 -6 -6z"/>
<path d="M5338 3283 c7 -3 16 -2 19 1 4 3 -2 6 -13 5 -11 0 -14 -3 -6 -6z"/>
<path d="M4995 3270 c3 -5 8 -10 11 -10 2 0 4 5 4 10 0 6 -5 10 -11 10 -5 0
-7 -4 -4 -10z"/>
<path d="M5178 3263 c7 -3 16 -2 19 1 4 3 -2 6 -13 5 -11 0 -14 -3 -6 -6z"/>
<path d="M4250 3251 c0 -5 12 -17 28 -26 l27 -18 -24 27 c-26 28 -31 31 -31
17z"/>
<path d="M5220 3240 c-20 -6 -21 -8 -5 -8 11 0 29 3 40 8 25 11 -1 11 -35 0z"/>
<path d="M4430 3002 c0 -5 7 -15 15 -22 8 -7 15 -8 15 -2 0 5 -7 15 -15 22 -8
7 -15 8 -15 2z"/>
<path d="M7094 10061 c20 -22 26 -25 26 -13 0 4 -10 13 -22 21 -23 14 -23 14
-4 -8z"/>
<path d="M5785 9650 c-3 -5 1 -10 9 -10 9 0 16 5 16 10 0 6 -4 10 -9 10 -6 0
-13 -4 -16 -10z"/>
<path d="M5610 9630 c0 -5 5 -10 11 -10 5 0 7 5 4 10 -3 6 -8 10 -11 10 -2 0
-4 -4 -4 -10z"/>
<path d="M5287 9605 c3 -8 9 -12 14 -9 12 7 11 11 -5 17 -10 4 -13 1 -9 -8z"/>
<path d="M5427 9606 c-4 -10 -5 -21 -2 -24 9 -9 17 6 13 25 -3 17 -4 17 -11
-1z"/>
<path d="M4364 9585 c-18 -13 -18 -14 4 -8 12 3 25 9 28 14 8 14 -10 11 -32
-6z"/>
<path d="M4770 9593 c0 -11 58 -68 64 -62 2 2 -12 19 -30 38 -19 19 -34 30
-34 24z"/>
<path d="M4014 9568 c-43 -32 -49 -38 -38 -38 10 1 83 59 73 60 -4 0 -19 -10
-35 -22z"/>
<path d="M4480 9586 c0 -2 7 -9 15 -16 13 -11 14 -10 9 4 -5 14 -24 23 -24 12z"/>
<path d="M5720 9587 c0 -7 111 -69 116 -64 2 2 -20 17 -48 33 -64 35 -68 37
-68 31z"/>
<path d="M4520 9565 c0 -5 5 -17 10 -25 5 -8 10 -10 10 -5 0 6 -5 17 -10 25
-5 8 -10 11 -10 5z"/>
<path d="M4739 9551 c13 -12 28 -21 34 -21 12 0 11 0 -28 24 l-30 17 24 -20z"/>
<path d="M4645 9550 c3 -5 14 -10 23 -10 15 0 15 2 2 10 -20 13 -33 13 -25 0z"/>
<path d="M5058 9468 c5 -5 16 -8 23 -6 8 3 3 7 -10 11 -17 4 -21 3 -13 -5z"/>
<path d="M6450 9415 c0 -5 5 -17 10 -25 5 -8 10 -10 10 -5 0 6 -5 17 -10 25
-5 8 -10 11 -10 5z"/>
<path d="M3295 8930 c-3 -6 1 -7 9 -4 18 7 21 14 7 14 -6 0 -13 -4 -16 -10z"/>
<path d="M6398 8039 c19 -22 21 -27 8 -32 -9 -3 -18 -2 -21 3 -4 6 -11 10 -17
10 -7 0 -2 -9 10 -20 21 -20 37 -27 28 -12 -6 10 40 10 50 0 4 -5 12 -8 18 -8
6 0 0 9 -14 20 -14 11 -20 20 -13 20 6 0 18 -6 25 -13 7 -7 24 -21 38 -30 13
-9 20 -17 14 -17 -6 0 -14 3 -18 7 -13 13 -67 12 -59 -1 4 -6 0 -6 -9 2 -8 7
-22 10 -31 7 -8 -4 -38 6 -66 21 -29 14 -55 24 -58 20 -4 -3 -1 -6 6 -6 7 0 9
-5 5 -12 -5 -8 -2 -9 9 -5 10 4 24 -1 35 -13 10 -11 40 -24 66 -29 26 -5 50
-11 53 -14 7 -8 -63 2 -99 13 -17 6 -28 5 -28 -1 0 -5 -5 -9 -12 -9 -6 0 -8 3
-5 7 8 8 -11 33 -25 33 -6 0 -4 -8 3 -17 9 -12 5 -11 -11 3 -27 23 -85 46 -94
37 -3 -4 0 -13 7 -21 13 -16 15 -16 -50 3 -13 3 -23 11 -23 16 0 5 -14 9 -31
9 -17 0 -40 5 -52 11 -21 10 -21 10 -3 -5 11 -9 27 -16 35 -16 9 -1 27 -7 41
-15 l25 -14 -26 -1 c-14 0 -34 7 -45 15 -19 15 -145 22 -130 8 4 -5 16 -8 27
-8 10 0 18 -4 18 -10 0 -5 -12 -9 -26 -8 -14 1 -35 -3 -46 -8 -11 -7 -17 -7
-13 -1 6 11 -44 9 -62 -2 -6 -4 -21 -5 -34 -3 -13 2 -17 2 -10 0 7 -3 9 -9 5
-15 -4 -8 0 -9 11 -5 39 15 64 18 70 9 3 -5 -4 -10 -17 -11 -99 -5 -107 -7
-142 -47 -19 -21 -34 -36 -35 -33 0 4 13 21 29 39 25 29 27 36 15 47 -10 10
-19 11 -31 4 -16 -9 -15 -10 7 -11 l25 -1 -27 -23 c-15 -13 -24 -27 -21 -30 4
-3 -1 -6 -10 -6 -10 0 -19 0 -22 0 -8 0 -48 -42 -67 -69 -10 -15 -18 -21 -18
-15 0 5 6 19 14 29 8 11 11 25 9 33 -3 7 5 25 18 40 13 14 4 9 -20 -12 -28
-25 -46 -35 -49 -27 -5 15 -53 -81 -63 -124 l-6 -30 -2 31 c0 17 10 52 24 78
23 43 23 46 5 36 -11 -6 -20 -19 -20 -28 0 -10 -5 -23 -11 -29 -7 -7 -11 -37
-10 -67 0 -38 -3 -56 -11 -56 -8 0 -6 -6 4 -16 15 -15 15 -19 0 -53 -9 -20
-23 -44 -31 -53 -8 -10 -11 -18 -7 -18 4 0 2 -8 -3 -18 -13 -24 -21 -122 -10
-122 4 0 6 -8 5 -17 -2 -10 5 -29 15 -42 11 -13 19 -28 19 -34 0 -21 35 -86
47 -87 12 0 6 37 -10 58 -7 8 -5 12 6 12 11 0 14 8 11 28 -6 34 12 58 49 66
22 5 27 4 22 -6 -4 -7 0 -5 8 5 9 10 30 20 49 22 l33 4 -30 -13 c-16 -8 -29
-16 -27 -18 2 -1 -1 -16 -7 -31 -6 -16 -11 -37 -11 -49 0 -17 4 -19 25 -14 16
4 25 2 25 -5 0 -8 4 -8 14 0 10 9 16 9 21 1 4 -6 15 -8 25 -5 10 3 21 1 24 -4
4 -6 14 -7 24 -4 15 6 16 5 2 -12 -14 -17 -14 -18 7 -7 28 15 36 15 27 0 -5
-7 -3 -8 5 -4 7 5 20 1 30 -8 17 -16 19 -16 25 0 6 16 8 15 22 -4 8 -12 24
-22 35 -22 10 0 28 -6 39 -12 17 -11 22 -10 30 2 8 11 9 6 5 -17 -5 -30 -4
-31 28 -26 17 3 34 7 36 9 2 2 10 -1 18 -7 9 -8 17 -8 26 0 8 6 17 8 20 4 4
-3 7 -3 7 1 0 3 -10 11 -22 16 l-23 9 22 0 c12 1 30 -10 41 -24 23 -29 32 -32
27 -7 -2 9 -4 21 -4 25 -1 5 -7 5 -13 1 -10 -5 -10 -3 0 7 11 12 14 12 22 0 4
-8 15 -16 22 -17 12 -1 12 5 4 32 -8 25 -17 34 -33 34 -16 0 -20 -5 -16 -20 5
-19 1 -20 -56 -18 -33 2 -61 7 -61 11 0 5 -4 5 -10 2 -6 -3 -9 4 -8 19 1 13 6
22 10 20 4 -3 8 0 8 5 0 6 9 11 21 11 15 0 19 -5 14 -19 -3 -12 0 -21 10 -25
8 -3 15 -1 15 4 0 6 -4 10 -10 10 -5 0 -7 7 -3 16 5 13 9 10 19 -12 7 -16 13
-23 13 -16 1 7 6 10 11 7 6 -3 10 1 10 9 0 10 6 13 17 9 10 -4 14 -2 10 4 -10
15 31 23 60 12 16 -6 22 -6 18 1 -3 6 -14 10 -22 10 -13 0 -11 6 9 28 13 15
35 44 47 65 26 43 31 44 56 17 24 -27 29 -59 10 -66 -8 -4 -15 -10 -15 -16 0
-5 5 -6 10 -3 6 3 10 2 10 -3 0 -5 -18 -15 -40 -22 -43 -14 -51 -26 -22 -33 9
-2 5 -3 -9 -1 -14 2 -37 0 -50 -4 -23 -6 -23 -6 5 -12 16 -3 31 -11 34 -18 3
-9 -4 -11 -25 -7 -19 5 -24 4 -14 -3 7 -5 10 -15 7 -21 -9 -14 16 -10 26 4 10
13 59 -15 68 -40 4 -12 7 6 6 44 -1 49 3 65 14 69 13 5 13 3 1 -11 -11 -15
-11 -17 2 -17 8 0 20 -7 27 -15 8 -9 9 -15 2 -15 -6 0 -14 5 -17 10 -11 18
-23 10 -21 -14 0 -13 4 -22 7 -20 4 2 20 -3 35 -11 16 -8 23 -15 16 -15 -7 0
-10 -4 -7 -10 10 -16 25 -12 25 8 0 14 2 14 9 3 11 -17 91 -22 91 -6 0 10 15
14 63 16 9 0 17 5 17 10 0 6 5 7 12 3 7 -4 8 -3 4 5 -4 6 -11 9 -16 6 -5 -3
-11 -1 -14 4 -4 6 9 8 30 6 19 -2 33 -1 30 2 -3 3 10 19 27 35 18 17 26 28 20
24 -7 -4 -13 -5 -13 -2 0 3 12 12 28 20 l27 15 -25 1 c-22 1 -21 3 10 15 27
10 30 14 13 14 -12 1 -25 5 -28 11 -4 6 1 7 12 3 10 -3 15 -3 11 2 -4 4 7 19
25 33 17 14 25 22 16 19 -9 -3 -22 -1 -30 4 -10 6 -7 9 13 9 15 0 30 5 33 10
4 6 10 8 15 5 4 -3 10 1 13 9 6 14 -5 15 -36 1 -27 -12 -32 2 -5 16 36 20 79
22 72 4 -7 -17 4 -19 26 -5 8 5 11 12 7 16 -4 4 1 13 11 21 16 14 16 14 -3 8
-27 -10 -115 -13 -109 -4 6 11 63 16 66 7 4 -11 58 30 58 43 0 6 -4 7 -10 4
-5 -3 -11 1 -11 9 -1 9 -2 22 -3 29 -1 8 -18 12 -49 11 -37 0 -44 2 -30 10 10
5 30 9 46 7 15 -1 27 2 27 7 0 17 50 0 66 -22 14 -20 15 -19 10 22 -5 40 -4
43 12 31 12 -10 11 -6 -3 10 -11 13 -31 27 -44 32 -16 7 -21 14 -16 27 5 14 4
15 -6 5 -7 -7 -20 -13 -28 -13 -13 1 -13 2 1 11 21 12 13 37 -16 50 -16 7 -13
8 14 4 33 -4 33 -4 9 6 -15 5 -29 20 -33 32 -7 27 0 33 19 17 9 -7 18 -10 21
-7 3 3 -3 12 -15 19 -28 17 -27 32 1 17 16 -9 13 -2 -11 22 -19 19 -42 35 -50
35 -9 1 -25 5 -36 9 -19 6 -19 6 -2 -5 16 -10 34 -16 58 -19 4 -1 9 -8 13 -16
4 -12 0 -14 -21 -9 -18 5 -24 4 -19 -5 4 -6 14 -11 22 -11 8 0 14 -4 14 -10 0
-16 -26 -12 -41 7 -8 9 -36 27 -64 39 -55 25 -132 89 -127 105 1 6 -2 8 -7 5
-5 -3 -26 8 -47 25 -25 19 -45 28 -58 25 -13 -3 -30 3 -46 17 l-25 22 23 -26z
m-152 -64 c10 -8 14 -15 8 -15 -5 0 -19 7 -30 15 -10 8 -14 15 -8 15 5 0 19
-7 30 -15z m-281 -35 c19 -8 19 -9 -2 -9 -12 -1 -25 4 -28 9 -7 12 2 12 30 0z
m335 -12 c0 -6 -6 -5 -15 2 -8 7 -15 14 -15 16 0 2 7 1 15 -2 8 -4 15 -11 15
-16z m175 -28 c4 -6 -6 -10 -22 -9 -25 0 -26 1 -8 9 11 5 21 9 22 9 1 1 5 -3
8 -9z m-699 -15 c-36 -19 -45 -19 -20 0 10 8 26 14 34 15 8 0 2 -7 -14 -15z
m-96 -69 c-14 -13 -27 -22 -29 -20 -7 6 31 44 43 44 6 0 -1 -11 -14 -24z
m1042 8 c-5 -10 -23 -7 -37 7 -6 6 -1 8 15 6 14 -2 23 -8 22 -13z m-1162 2 c0
-3 -13 -24 -28 -48 -25 -38 -62 -118 -62 -134 0 -3 7 -3 16 0 14 5 15 4 4 -9
-10 -12 -16 -13 -27 -4 -13 11 -9 47 6 59 4 3 15 27 25 54 18 47 43 83 59 85
4 1 7 -1 7 -3z m1195 -36 c3 -5 2 -10 -4 -10 -5 0 -13 5 -16 10 -3 6 -2 10 4
10 5 0 13 -4 16 -10z m33 -15 c-3 -3 -9 2 -12 12 -6 14 -5 15 5 6 7 -7 10 -15
7 -18z m-1235 -30 c-7 -21 -12 -19 -10 4 0 11 5 18 9 15 4 -3 5 -11 1 -19z
m797 15 c0 -5 -8 -10 -17 -10 -15 0 -16 2 -3 10 19 12 20 12 20 0z m-730 -29
c-5 -11 -15 -23 -21 -27 -6 -3 -3 5 6 20 20 30 30 35 15 7z m21 -4 c-10 -9
-11 -8 -5 6 3 10 9 15 12 12 3 -3 0 -11 -7 -18z m-65 -15 c-18 -16 -18 -16 -6
6 6 13 14 21 18 18 3 -4 -2 -14 -12 -24z m817 21 c-7 -2 -19 -2 -25 0 -7 3 -2
5 12 5 14 0 19 -2 13 -5z m140 0 c-7 -2 -19 -2 -25 0 -7 3 -2 5 12 5 14 0 19
-2 13 -5z m267 -33 c0 -6 -9 -2 -20 7 -11 10 -20 19 -20 21 0 1 9 -2 20 -8 11
-6 20 -15 20 -20z m-1262 0 c-14 -22 -24 -19 -15 5 4 8 11 15 17 15 6 0 6 -7
-2 -20z m649 14 c-3 -3 -12 -4 -19 -1 -8 3 -5 6 6 6 11 1 17 -2 13 -5z m53 2
c0 -2 -7 -7 -16 -10 -8 -3 -12 -2 -9 4 6 10 25 14 25 6z m95 -6 c-3 -5 -14
-10 -23 -9 -14 0 -13 2 3 9 27 11 27 11 20 0z m-219 -26 c-4 -12 -2 -15 9 -10
8 3 15 2 15 -3 0 -11 -36 -21 -80 -21 -26 0 -31 3 -20 10 8 5 23 7 32 4 11 -3
22 3 30 15 15 25 23 27 14 5z m174 12 c0 -3 -4 -8 -10 -11 -5 -3 -10 -1 -10 4
0 6 5 11 10 11 6 0 10 -2 10 -4z m-120 -16 c0 -5 -5 -10 -11 -10 -5 0 -7 5 -4
10 3 6 8 10 11 10 2 0 4 -4 4 -10z m60 -10 c0 -5 -8 -10 -17 -10 -15 0 -16 2
-3 10 19 12 20 12 20 0z m40 -4 c0 -2 -7 -6 -15 -10 -8 -3 -15 -1 -15 4 0 6 7
10 15 10 8 0 15 -2 15 -4z m-15 -20 c28 0 40 -1 27 -3 -12 -3 -20 -8 -18 -11
2 -4 -30 -3 -72 2 -62 8 -71 12 -47 17 17 4 37 4 45 1 8 -4 38 -6 65 -6z m195
4 c-8 -5 -24 -10 -35 -11 -17 -1 -16 -2 5 -9 22 -7 20 -8 -12 -7 -42 2 -40 13
5 26 43 12 55 13 37 1z m75 0 c3 -6 -5 -10 -19 -10 -13 0 -33 -2 -43 -5 -10
-3 -4 1 12 9 36 18 42 19 50 6z m343 -21 c19 -17 31 -33 28 -36 -3 -3 -20 11
-39 31 -42 44 -35 47 11 5z m-171 14 c-20 -2 -52 -2 -70 0 -17 2 0 4 38 4 39
0 53 -2 32 -4z m88 -3 c3 -5 2 -10 -4 -10 -5 0 -13 5 -16 10 -3 6 -2 10 4 10
5 0 13 -4 16 -10z m56 -17 c13 -17 13 -17 -6 -3 -11 8 -22 16 -24 17 -2 2 0 3
6 3 6 0 17 -8 24 -17z m-772 -22 c-15 -5 -22 6 -14 19 6 9 10 9 16 -1 5 -8 4
-15 -2 -18z m69 6 c8 -6 12 -5 13 4 0 10 2 11 6 2 3 -8 15 -11 31 -8 15 3 21
2 14 -1 -17 -8 -5 -24 19 -24 10 0 19 -4 19 -10 0 -5 5 -10 11 -10 5 0 8 4 4
9 -13 22 17 20 41 -3 l27 -24 -22 -13 c-26 -17 -27 -29 -2 -29 11 0 23 -5 27
-11 10 -16 -39 -7 -54 11 -10 11 -14 12 -18 2 -8 -17 -24 -5 -18 13 3 7 12 11
19 8 8 -2 24 2 37 11 22 16 22 16 1 16 -12 0 -24 -6 -27 -12 -5 -10 -7 -10
-12 0 -5 10 -9 10 -20 1 -11 -9 -14 -8 -14 7 -1 19 -1 19 -11 0 -9 -14 -8 -20
1 -26 9 -6 9 -9 0 -15 -8 -5 -18 -1 -27 10 -9 14 -13 15 -13 4 0 -9 -3 -10 -8
-3 -4 6 -27 10 -52 9 -46 -1 -55 4 -77 43 -15 26 -17 42 -3 42 5 0 7 -6 4 -13
-3 -8 1 -14 8 -14 7 0 24 -3 38 -5 14 -3 20 -3 14 -1 -6 2 -11 14 -11 27 0 19
4 22 21 18 11 -3 27 -9 34 -15z m558 5 c-16 -2 -32 0 -37 5 -5 5 7 7 29 4 34
-5 35 -6 8 -9z m-691 -2 c3 -5 -1 -10 -9 -10 -9 0 -16 5 -16 10 0 6 4 10 9 10
6 0 13 -4 16 -10z m502 4 c-3 -3 -12 -4 -19 -1 -8 3 -5 6 6 6 11 1 17 -2 13
-5z m-502 -44 c-1 -8 3 -22 9 -30 10 -13 9 -13 -6 -1 -10 7 -15 17 -12 22 3 5
-2 9 -10 9 -9 0 -16 4 -16 9 0 6 8 9 19 8 11 0 18 -8 16 -17z m660 15 c-25 -9
-107 -12 -94 -4 8 5 34 8 59 8 25 0 41 -2 35 -4z m50 -15 c3 -5 1 -10 -4 -10
-6 0 -11 5 -11 10 0 6 2 10 4 10 3 0 8 -4 11 -10z m-837 -7 c-10 -2 -18 -9
-18 -14 0 -5 -8 -9 -18 -9 -10 0 -23 -5 -30 -12 -6 -6 -14 -9 -18 -5 -7 7 65
45 86 45 10 0 9 -2 -2 -5z m812 3 c0 -2 -7 -6 -15 -10 -8 -3 -15 -1 -15 4 0 6
7 10 15 10 8 0 15 -2 15 -4z m55 -26 c-3 -5 -14 -10 -23 -9 -14 0 -13 2 3 9
27 11 27 11 20 0z m-840 -10 c4 -6 10 -8 15 -5 5 3 11 1 15 -5 3 -5 0 -10 -7
-10 -16 1 -56 30 -41 30 7 0 15 -5 18 -10z m65 0 c0 -5 -2 -10 -4 -10 -3 0 -8
5 -11 10 -3 6 -1 10 4 10 6 0 11 -4 11 -10z m836 -5 c-11 -8 -27 -15 -35 -15
-10 0 -7 6 9 14 33 19 50 19 26 1z m-456 -9 c0 -3 -4 -8 -10 -11 -5 -3 -10 -1
-10 4 0 6 5 11 10 11 6 0 10 -2 10 -4z m353 -3 c-7 -2 -19 -2 -25 0 -7 3 -2 5
12 5 14 0 19 -2 13 -5z m-886 -10 c-4 -3 -2 -12 4 -20 7 -8 8 -13 1 -13 -12 0
-23 26 -15 34 4 3 9 6 11 6 3 0 2 -3 -1 -7z m923 -3 c-10 -7 4 -8 45 -4 33 4
57 3 53 -1 -4 -4 -35 -9 -69 -12 -55 -3 -61 -2 -49 12 7 8 18 15 24 15 6 0 4
-5 -4 -10z m-954 -48 c-4 -3 -14 2 -24 12 -16 18 -16 18 6 6 13 -6 21 -14 18
-18z m549 0 c-3 -3 -11 0 -18 7 -9 10 -8 11 6 5 10 -3 15 -9 12 -12z m-221 -8
c9 -3 16 -17 16 -31 0 -35 -34 -27 -38 10 -4 29 -2 30 22 21z m-224 -45 c0
-57 32 -108 85 -137 35 -20 -5 -14 -100 15 -49 14 -96 33 -104 42 -12 14 -13
14 -8 -1 4 -12 1 -18 -9 -18 -15 0 -15 2 0 24 10 15 12 27 6 31 -6 3 -10 12
-10 18 0 7 4 6 10 -3 8 -13 11 -12 16 5 4 17 82 64 107 65 4 0 7 -18 7 -41z
m-250 -33 c0 -2 -8 -10 -17 -17 -16 -13 -17 -12 -4 4 13 16 21 21 21 13z m76
-50 c-21 -8 -21 -8 -1 -16 11 -5 15 -9 8 -9 -21 -2 -43 11 -43 25 0 8 6 11 15
8 10 -4 15 0 15 10 0 14 2 15 14 4 12 -11 11 -14 -8 -22z m-86 -1 c-7 -9 -15
-13 -19 -10 -3 3 1 10 9 15 21 14 24 12 10 -5z m189 -72 c-7 -10 -14 -19 -15
-21 -1 -1 -7 5 -15 15 -12 15 -12 16 3 10 10 -3 20 -2 23 3 4 6 9 10 12 10 3
0 -1 -8 -8 -17z m62 8 c-11 -7 -9 -10 8 -16 11 -3 25 -3 31 0 15 9 12 -4 -4
-21 -16 -16 -30 -19 -21 -4 3 5 -8 16 -25 25 -16 8 -30 17 -30 18 0 1 12 4 28
5 19 1 23 -1 13 -7z m476 -27 c-3 -3 -12 -4 -19 -1 -8 3 -5 6 6 6 11 1 17 -2
13 -5z m28 -13 c3 -5 2 -12 -3 -15 -5 -3 -9 1 -9 9 0 17 3 19 12 6z m-448 -23
c-3 -8 -6 -5 -6 6 -1 11 2 17 5 13 3 -3 4 -12 1 -19z m333 -5 c0 -26 -1 -26
-14 -7 -11 14 -11 21 -3 26 17 11 17 11 17 -19z m-230 -14 c0 -5 -4 -7 -10 -4
-5 3 -10 1 -10 -5 0 -7 -6 -10 -14 -7 -7 3 -19 0 -25 -6 -8 -8 -11 -6 -11 7 0
13 5 17 20 13 11 -3 20 -1 20 4 0 5 7 9 15 9 8 0 15 -5 15 -11z"/>
<path d="M6110 7599 c0 -5 5 -7 10 -4 6 3 10 8 10 11 0 2 -4 4 -10 4 -5 0 -10
-5 -10 -11z"/>
<path d="M6180 7560 c-9 -6 -10 -10 -3 -10 6 0 15 5 18 10 8 12 4 12 -15 0z"/>
<path d="M6060 7552 c0 -5 7 -9 15 -9 8 0 15 4 15 9 0 4 -7 8 -15 8 -8 0 -15
-4 -15 -8z"/>
<path d="M6110 7540 c0 -5 5 -10 11 -10 5 0 7 5 4 10 -3 6 -8 10 -11 10 -2 0
-4 -4 -4 -10z"/>
<path d="M6100 7420 c0 -5 5 -10 11 -10 5 0 7 5 4 10 -3 6 -8 10 -11 10 -2 0
-4 -4 -4 -10z"/>
<path d="M6455 8050 c3 -5 14 -10 23 -10 15 0 15 2 2 10 -20 13 -33 13 -25 0z"/>
<path d="M6520 8056 c0 -2 11 -6 25 -8 13 -3 22 -1 19 3 -5 9 -44 13 -44 5z"/>
<path d="M3940 8040 l-25 -8 27 -1 c15 -1 30 4 33 9 7 11 0 11 -35 0z"/>
<path d="M6335 8040 c3 -5 8 -10 11 -10 2 0 4 5 4 10 0 6 -5 10 -11 10 -5 0
-7 -4 -4 -10z"/>
<path d="M3748 8011 c-27 -15 -45 -31 -40 -36 4 -4 2 -5 -5 -1 -6 3 -14 2 -17
-3 -3 -5 -23 -19 -43 -30 l-38 -21 40 36 c26 23 31 31 15 22 -38 -20 -70 -50
-64 -59 3 -5 -2 -6 -10 -3 -9 3 -13 11 -9 18 3 6 2 7 -3 3 -5 -5 -9 -14 -9
-20 0 -7 -10 -11 -22 -9 -12 2 -24 -2 -28 -7 -3 -7 0 -8 9 -5 26 10 18 -12 -9
-24 -14 -6 -25 -16 -25 -22 0 -6 12 -3 28 6 20 13 17 8 -13 -21 -21 -21 -54
-44 -72 -51 -18 -8 -33 -19 -33 -25 0 -8 4 -8 13 -1 6 5 23 12 37 16 14 4 4
-4 -21 -18 -25 -13 -51 -32 -58 -40 -16 -20 -3 -21 18 -2 9 7 27 16 41 20 19
4 17 2 -7 -9 -17 -8 -34 -19 -38 -25 -3 -5 -12 -10 -20 -10 -8 0 -26 -11 -41
-25 l-27 -25 37 15 c21 9 35 11 31 6 -10 -17 12 -13 29 5 11 10 21 12 32 6 14
-8 11 -11 -17 -22 -19 -7 -41 -13 -51 -14 -9 -1 -20 -5 -25 -10 -9 -9 61 -3
92 8 16 6 17 6 5 -3 -8 -6 -34 -16 -57 -22 -24 -6 -43 -15 -43 -21 0 -5 9 -4
20 2 22 12 139 2 119 -11 -7 -4 -18 -5 -25 -2 -7 2 -22 -1 -34 -7 -15 -8 -25
-8 -34 -1 -9 8 -13 7 -13 -4 0 -8 7 -15 14 -15 8 0 12 -4 8 -9 -3 -5 -1 -12 5
-16 6 -4 8 -10 6 -14 -7 -11 91 -34 105 -25 8 5 9 3 4 -6 -4 -7 -2 -16 6 -22
10 -7 8 -8 -6 -2 -11 4 -45 9 -75 10 -30 1 -45 0 -32 -3 13 -2 19 -9 16 -15
-4 -6 -2 -8 3 -5 6 4 23 1 38 -7 23 -12 24 -15 8 -18 -10 -3 4 -5 30 -6 27 0
51 -3 55 -6 8 -9 11 -36 4 -35 -4 1 -18 0 -32 -1 l-25 -2 28 -10 c15 -5 25
-14 21 -19 -3 -5 7 -10 23 -10 21 -1 23 -3 8 -6 -22 -6 -45 -23 -29 -23 5 0
24 4 42 9 24 7 31 7 25 -2 -17 -27 -13 -47 10 -48 21 0 21 -1 2 -9 -17 -7 -14
-9 14 -9 29 -1 32 -3 21 -16 -10 -12 -9 -15 5 -15 9 0 19 -9 22 -20 5 -18 18
-24 51 -23 8 1 11 -5 8 -13 -4 -11 -2 -12 13 -4 13 6 21 6 23 0 2 -6 24 -11
51 -12 26 -1 47 -6 47 -10 0 -4 9 -6 20 -5 13 1 20 8 20 23 0 15 8 24 25 28
14 4 25 13 25 21 0 8 5 15 11 15 5 0 7 -4 4 -10 -3 -5 -1 -10 5 -10 7 0 10 -6
7 -13 -3 -8 -1 -20 4 -28 6 -10 9 0 10 31 2 35 3 39 7 15 4 -26 5 -28 12 -10
8 19 9 19 9 -2 1 -13 6 -23 12 -23 6 0 8 -9 4 -21 -5 -15 -4 -19 4 -15 6 4 11
14 11 22 0 24 18 16 28 -13 7 -18 11 -22 11 -10 1 10 9 30 19 44 9 15 12 24 5
20 -7 -4 -16 0 -21 9 -8 14 -12 12 -30 -11 -21 -26 -22 -26 -22 -6 0 12 6 21
15 21 8 0 15 5 15 10 0 14 27 13 32 -2 3 -7 12 -9 23 -4 16 6 17 9 5 16 -10 7
-11 10 -2 10 6 0 12 4 12 8 0 4 -24 9 -52 10 -29 1 -60 3 -68 5 -52 13 -76 22
-88 33 -7 7 -19 11 -26 8 -8 -3 -17 -1 -21 5 -4 7 0 8 11 4 14 -5 15 -3 5 15
-11 21 -8 30 25 80 9 13 48 -16 63 -46 11 -20 30 -47 44 -60 29 -28 105 -41
164 -29 66 13 130 92 132 165 1 12 3 22 5 22 2 0 27 -12 55 -26 39 -21 51 -32
51 -50 0 -25 15 -33 23 -11 3 6 4 -1 4 -17 -1 -16 4 -31 11 -33 6 -3 12 3 12
12 0 9 -4 13 -10 10 -6 -3 -7 1 -4 9 11 28 30 15 25 -16 0 -5 5 -8 12 -8 7 0
5 -5 -5 -10 -9 -6 -37 -8 -62 -6 -29 2 -44 -1 -43 -8 1 -6 -12 -11 -30 -12
-18 0 -36 -3 -39 -7 -4 -4 -23 -7 -43 -7 -32 0 -33 -1 -16 -13 14 -11 15 -16
5 -22 -8 -5 -11 -4 -6 3 3 6 -2 13 -11 15 -29 8 -106 -7 -109 -21 -1 -7 0 -8
3 -2 8 17 23 11 16 -6 -5 -14 -3 -15 18 -3 25 14 49 20 49 13 0 -3 -12 -10
-27 -16 -25 -10 -26 -12 -8 -16 11 -2 28 -14 38 -25 13 -16 20 -18 29 -9 15
15 42 16 33 2 -3 -5 -1 -10 4 -10 6 0 11 5 11 10 0 6 7 10 15 10 8 0 15 5 15
11 0 5 -4 8 -9 5 -5 -4 -16 -3 -24 0 -13 5 -13 8 4 25 25 25 37 25 14 -1 -23
-25 -2 -27 22 -1 19 20 60 36 81 33 6 -2 12 1 12 6 0 6 13 12 29 14 18 3 29 0
28 -6 -1 -6 4 -10 12 -8 8 2 11 -3 8 -13 -4 -8 -2 -15 2 -15 5 0 11 5 13 11 2
7 24 12 48 13 42 1 45 3 47 30 3 32 -9 59 -41 95 l-21 24 23 -6 c19 -4 22 -2
17 11 -3 9 10 1 31 -18 20 -19 34 -29 30 -22 -16 28 6 9 34 -29 28 -40 29 -42
12 -67 -19 -29 -27 -106 -10 -96 14 9 48 86 42 96 -3 4 0 8 5 8 6 0 11 9 11
20 0 11 5 20 11 20 5 0 8 -3 5 -8 -2 -4 14 -8 37 -8 23 0 34 1 25 3 -13 3 -16
13 -13 40 2 20 -5 63 -16 96 -10 33 -19 67 -19 77 0 9 -9 29 -20 43 -23 29
-26 41 -7 32 6 -4 4 0 -6 8 -17 14 -14 53 3 42 4 -3 13 8 19 24 14 31 12 123
-2 114 -4 -3 -7 1 -6 8 1 8 0 21 -4 29 -3 8 -8 22 -11 30 -3 8 -4 -5 -1 -30
l5 -45 -23 45 c-13 25 -29 44 -36 42 -7 -1 -10 2 -7 7 3 5 0 14 -8 20 -12 10
-13 6 -7 -21 5 -19 12 -42 18 -53 6 -11 8 -25 6 -32 -2 -6 1 -14 6 -18 15 -8
14 38 0 52 -6 6 -9 17 -6 25 8 22 48 -83 44 -116 l-4 -31 -1 33 c-1 17 -6 32
-12 32 -9 0 -14 -17 -13 -47 1 -7 -4 -10 -9 -7 -5 3 -7 12 -4 19 7 18 -32 97
-44 90 -6 -4 -10 2 -10 12 0 20 -27 63 -39 63 -5 0 2 -21 15 -47 13 -25 24
-60 23 -77 -1 -26 -3 -23 -14 19 -14 48 -37 77 -95 118 -21 15 -23 19 -10 27
11 7 3 10 -28 10 -26 0 -41 4 -37 10 4 6 -5 10 -19 10 -36 0 -32 -15 7 -28 31
-11 31 -12 2 -6 -35 7 -57 22 -49 35 3 5 -2 9 -11 9 -8 0 -18 -7 -21 -15 -4
-8 -10 -15 -16 -15 -5 0 -6 5 -2 12 5 8 2 9 -10 5 -10 -4 -15 -3 -11 3 3 6 14
11 23 11 59 4 -73 14 -168 13 -157 -2 -162 -3 -155 -13 6 -11 -63 -36 -72 -27
-4 3 1 6 10 6 10 0 16 5 15 11 -2 6 16 18 40 28 23 9 40 20 36 24 -4 4 1 7 12
8 11 0 14 3 6 6 -7 3 -21 -2 -30 -10 -14 -12 -104 -47 -120 -47 -2 0 1 7 8 15
11 13 8 13 -23 0 -52 -22 -68 -18 -28 6 18 11 31 23 27 26 -3 3 -13 0 -22 -7
-17 -15 -167 -24 -159 -9 3 4 12 6 19 3 8 -3 17 -1 21 5 3 7 0 8 -9 5 -9 -3
-16 -3 -16 0 0 4 10 11 23 16 12 5 15 9 7 9 -8 0 -36 -13 -62 -28z m102 -41
c0 -5 -5 -10 -11 -10 -5 0 -7 5 -4 10 3 6 8 10 11 10 2 0 4 -4 4 -10z m480 0
c-8 -5 -19 -10 -25 -10 -5 0 -3 5 5 10 8 5 20 10 25 10 6 0 3 -5 -5 -10z m-97
-7 c-7 -2 -19 -2 -25 0 -7 3 -2 5 12 5 14 0 19 -2 13 -5z m-423 -7 c0 -2 -7
-7 -16 -10 -8 -3 -12 -2 -9 4 6 10 25 14 25 6z m-74 -21 c-11 -8 -25 -15 -30
-15 -6 1 0 7 14 15 32 19 40 18 16 0z m601 9 c-3 -3 -12 -4 -19 -1 -8 3 -5 6
6 6 11 1 17 -2 13 -5z m-667 -24 c-8 -5 -19 -10 -25 -10 -5 0 -3 5 5 10 8 5
20 10 25 10 6 0 3 -5 -5 -10z m45 -20 c-3 -5 -12 -10 -18 -10 -7 0 -6 4 3 10
19 12 23 12 15 0z m810 0 c3 -6 -1 -7 -9 -4 -18 7 -21 14 -7 14 6 0 13 -4 16
-10z m62 -26 c20 -19 22 -24 7 -16 -21 11 -51 42 -41 42 3 0 19 -12 34 -26z
m-770 0 c-3 -3 -12 -4 -19 -1 -8 3 -5 6 6 6 11 1 17 -2 13 -5z m789 -52 c-4
-3 -14 2 -24 12 -16 18 -16 18 6 6 13 -6 21 -14 18 -18z m38 2 c9 -24 2 -26
-12 -4 -7 11 -8 20 -3 20 5 0 12 -7 15 -16z m-1024 1 c0 -7 -61 -37 -66 -32
-3 2 10 12 28 20 37 19 38 19 38 12z m367 -11 c-3 -3 -12 -4 -19 -1 -8 3 -5 6
6 6 11 1 17 -2 13 -5z m-290 -10 c-3 -3 -12 -4 -19 -1 -8 3 -5 6 6 6 11 1 17
-2 13 -5z m1113 -67 c0 -43 -10 -78 -21 -72 -4 3 -4 17 1 31 6 14 8 39 5 55
-4 20 -2 28 5 24 5 -3 10 -21 10 -38z m-96 -12 l6 -30 -15 25 c-8 14 -14 32
-15 40 0 23 17 -2 24 -35z m-83 8 c13 -16 12 -17 -3 -4 -10 7 -18 15 -18 17 0
8 8 3 21 -13z m39 -28 c0 -5 -5 -3 -10 5 -5 8 -10 20 -10 25 0 6 5 3 10 -5 5
-8 10 -19 10 -25z m-610 -26 c0 -11 -57 -12 -63 -1 -3 4 10 8 29 9 19 1 34 -3
34 -8z m-543 -15 c-3 -3 -12 -4 -19 -1 -8 3 -5 6 6 6 11 1 17 -2 13 -5z m429
-12 c-10 -2 -22 0 -28 6 -6 6 0 7 19 4 21 -5 23 -7 9 -10z m-289 2 c-3 -3 -12
-4 -19 -1 -8 3 -5 6 6 6 11 1 17 -2 13 -5z m40 0 c-3 -3 -12 -4 -19 -1 -8 3
-5 6 6 6 11 1 17 -2 13 -5z m162 2 c-2 -2 -20 -6 -39 -10 -25 -4 -31 -3 -20 4
14 9 69 15 59 6z m-262 -22 c-3 -3 -12 -4 -19 -1 -8 3 -5 6 6 6 11 1 17 -2 13
-5z m610 -1 c-18 -3 -25 -9 -20 -16 4 -8 1 -7 -9 1 -14 11 -16 10 -11 -7 5
-19 7 -19 39 -6 19 8 32 10 28 4 -4 -7 4 -9 22 -7 30 3 46 -18 20 -28 -9 -3
-16 -14 -16 -24 0 -11 -5 -22 -11 -26 -8 -4 -9 1 -4 16 6 19 4 22 -10 16 -15
-5 -16 -2 -11 21 l7 28 -18 -26 c-10 -14 -26 -34 -35 -43 -17 -17 -18 -16 -18
4 0 17 -3 19 -19 10 -15 -7 -23 -6 -35 6 -9 8 -16 19 -16 24 0 9 39 23 57 21
7 -1 10 5 7 13 -4 11 -15 14 -37 10 -26 -3 -28 -2 -12 5 11 5 45 9 75 9 30 -1
43 -3 27 -5z m-484 -10 c-7 -2 -21 -2 -30 0 -10 3 -4 5 12 5 17 0 24 -2 18 -5z
m-159 -11 c3 -5 -8 -6 -25 -4 -16 2 -29 6 -29 8 0 8 49 4 54 -4z m93 2 c-3 -3
-12 -4 -19 -1 -8 3 -5 6 6 6 11 1 17 -2 13 -5z m230 -10 c-3 -3 -12 -4 -19 -1
-8 3 -5 6 6 6 11 1 17 -2 13 -5z m168 -4 c3 -5 1 -10 -4 -10 -6 0 -11 5 -11
10 0 6 2 10 4 10 3 0 8 -4 11 -10z m248 -32 c-11 -13 -19 -30 -16 -38 2 -8 -1
-6 -8 4 -10 16 -8 22 12 37 32 25 37 24 12 -3z m-298 2 c3 -6 -1 -7 -9 -4 -18
7 -21 14 -7 14 6 0 13 -4 16 -10z m87 -13 c5 -10 7 -21 4 -24 -3 -4 -6 -1 -6
7 0 10 -3 10 -15 0 -16 -13 -35 -6 -35 15 0 7 -6 15 -12 18 -7 2 2 4 20 3 21
-1 37 -8 44 -19z m284 -16 c8 6 17 9 20 6 3 -3 -5 -11 -18 -18 -12 -6 -26 -17
-30 -23 -5 -7 -8 -7 -8 2 0 7 -5 10 -11 6 -8 -5 -8 -1 0 14 6 11 8 29 5 39 -3
10 2 5 11 -10 13 -23 19 -26 31 -16z m-779 23 c-3 -3 -12 -4 -19 -1 -8 3 -5 6
6 6 11 1 17 -2 13 -5z m-127 -14 c11 -8 7 -9 -15 -4 -37 8 -45 14 -19 14 10 0
26 -5 34 -10z m525 0 c3 -5 13 -6 22 -3 13 5 12 1 -4 -17 -18 -18 -25 -21 -36
-11 -12 9 -16 8 -21 -4 -3 -9 -10 -13 -16 -10 -6 4 -8 11 -5 16 4 5 2 9 -4 9
-5 0 -11 -4 -13 -9 -1 -5 -11 -4 -20 3 -15 11 -10 12 30 12 26 -1 53 -5 60 -9
6 -5 12 -4 12 2 0 5 -8 15 -17 20 -10 6 -13 11 -6 11 6 0 14 -4 18 -10z m225
-21 c0 -5 -7 -9 -15 -9 -15 0 -20 12 -9 23 8 8 24 -1 24 -14z m93 6 c-3 -9 -8
-14 -10 -11 -3 3 -2 9 2 15 9 16 15 13 8 -4z m-864 -11 c2 -2 -7 -4 -22 -4
-14 0 -29 5 -32 10 -6 10 42 4 54 -6z m970 3 c-2 -1 -13 -9 -24 -17 -19 -14
-19 -14 -6 3 7 9 18 17 24 17 6 0 8 -1 6 -3z m-489 -43 c0 -9 -44 14 -48 25
-3 8 5 7 22 -4 14 -10 26 -19 26 -21z m-363 0 c-3 -3 -12 -4 -19 -1 -8 3 -5 6
6 6 11 1 17 -2 13 -5z m898 -4 c-3 -5 -12 -10 -18 -10 -7 0 -6 4 3 10 19 12
23 12 15 0z m-218 -23 c11 4 14 0 11 -18 -5 -35 -33 -30 -35 6 -1 17 0 25 3
18 3 -7 12 -9 21 -6z m-681 -35 c-10 -2 -22 0 -28 6 -6 6 0 7 19 4 21 -5 23
-7 9 -10z m1039 -102 c-3 -5 -14 -10 -23 -10 -15 0 -15 2 -2 10 20 13 33 13
25 0z m-705 -124 c-5 -13 -6 -28 -2 -32 4 -5 -1 -3 -10 4 -16 12 -16 15 0 33
21 25 23 24 12 -5z m400 14 c-11 -7 -11 -10 -2 -10 7 0 10 -4 7 -10 -15 -24
-26 -5 -16 28 1 1 7 2 14 2 8 0 7 -4 -3 -10z m-193 -46 c-9 -9 -28 6 -21 18 4
6 10 6 17 -1 6 -6 8 -13 4 -17z m-254 1 c-3 -9 -8 -14 -10 -11 -3 3 -2 9 2 15
9 16 15 13 8 -4z"/>
<path d="M4138 7573 c6 -2 18 -2 25 0 6 3 1 5 -13 5 -14 0 -19 -2 -12 -5z"/>
<path d="M3858 8023 c-26 -7 -22 -24 5 -19 12 3 26 5 30 5 5 1 5 6 2 11 -6 10
-9 11 -37 3z"/>
<path d="M3675 8010 c-3 -5 -2 -10 4 -10 5 0 13 5 16 10 3 6 2 10 -4 10 -5 0
-13 -4 -16 -10z"/>
<path d="M4005 8010 c-3 -5 -1 -10 4 -10 6 0 11 5 11 10 0 6 -2 10 -4 10 -3 0
-8 -4 -11 -10z"/>
<path d="M4156 8011 c-3 -4 6 -6 19 -3 14 2 25 6 25 8 0 8 -39 4 -44 -5z"/>
<path d="M6310 7980 c0 -5 5 -10 11 -10 5 0 7 5 4 10 -3 6 -8 10 -11 10 -2 0
-4 -4 -4 -10z"/>
<path d="M6570 7973 c0 -6 19 -27 43 -46 55 -45 82 -58 37 -18 -19 17 -45 41
-57 53 -13 12 -23 17 -23 11z"/>
<path d="M6680 7976 c0 -2 7 -9 15 -16 9 -7 15 -8 15 -2 0 5 -7 12 -15 16 -8
3 -15 4 -15 2z"/>
<path d="M3466 7955 c-9 -26 -7 -32 5 -12 6 10 9 21 6 23 -2 3 -7 -2 -11 -11z"/>
<path d="M4518 7953 c7 -3 16 -2 19 1 4 3 -2 6 -13 5 -11 0 -14 -3 -6 -6z"/>
<path d="M5647 7936 c-9 -13 -13 -26 -10 -30 3 -3 12 6 20 21 17 34 10 41 -10
9z"/>
<path d="M5583 7915 c-20 -19 -34 -37 -31 -40 3 -3 16 7 30 23 13 16 33 34 43
40 11 6 14 12 8 12 -7 0 -30 -16 -50 -35z"/>
<path d="M5745 7940 c-3 -5 -1 -10 4 -10 6 0 11 5 11 10 0 6 -2 10 -4 10 -3 0
-8 -4 -11 -10z"/>
<path d="M4618 7923 c6 -2 10 -8 8 -12 -3 -4 4 -7 15 -7 19 0 19 1 3 13 -10 7
-23 13 -28 12 -6 0 -5 -3 2 -6z"/>
<path d="M6711 7926 c2 -2 15 -9 29 -16 23 -12 24 -12 11 3 -7 10 -20 17 -29
17 -8 0 -13 -2 -11 -4z"/>
<path d="M3450 7910 c0 -5 5 -10 10 -10 6 0 10 5 10 10 0 6 -4 10 -10 10 -5 0
-10 -4 -10 -10z"/>
<path d="M5668 7913 c7 -3 16 -2 19 1 4 3 -2 6 -13 5 -11 0 -14 -3 -6 -6z"/>
<path d="M4675 7890 c3 -5 8 -10 11 -10 2 0 4 5 4 10 0 6 -5 10 -11 10 -5 0
-7 -4 -4 -10z"/>
<path d="M5505 7879 c-4 -6 -5 -12 -2 -15 2 -3 7 2 10 11 7 17 1 20 -8 4z"/>
<path d="M5605 7870 c-10 -11 -14 -20 -9 -20 5 0 15 9 22 20 7 11 11 20 9 20
-2 0 -12 -9 -22 -20z"/>
<path d="M3450 7870 c-8 -5 -10 -10 -5 -10 6 0 17 5 25 10 8 5 11 10 5 10 -5
0 -17 -5 -25 -10z"/>
<path d="M4801 7844 c0 -11 3 -14 6 -6 3 7 2 16 -1 19 -3 4 -6 -2 -5 -13z"/>
<path d="M3460 7840 c15 -10 8 -14 -21 -11 -9 1 -22 -6 -30 -15 -13 -16 -12
-16 9 -5 12 6 27 9 33 6 5 -4 17 -1 25 6 12 10 12 14 2 20 -7 5 -17 9 -23 9
-5 0 -3 -5 5 -10z"/>
<path d="M5451 7833 c0 -6 -4 -20 -7 -30 -5 -14 -4 -15 5 -7 7 7 11 20 8 30
-3 11 -5 14 -6 7z"/>
<path d="M4850 7770 c-13 -27 -20 -53 -17 -56 4 -4 9 2 13 12 3 10 13 34 21
52 24 54 9 47 -17 -8z"/>
<path d="M5420 7771 c0 -6 4 -13 10 -16 6 -3 7 1 4 9 -7 18 -14 21 -14 7z"/>
<path d="M6830 7776 c0 -2 7 -6 15 -10 8 -3 15 -1 15 4 0 6 -7 10 -15 10 -8 0
-15 -2 -15 -4z"/>
<path d="M6840 7720 c0 -4 9 -10 20 -13 11 -3 20 -2 20 3 0 4 -9 10 -20 13
-11 3 -20 2 -20 -3z"/>
<path d="M6880 7681 c0 -5 9 -7 20 -4 11 3 20 7 20 9 0 2 -9 4 -20 4 -11 0
-20 -4 -20 -9z"/>
<path d="M6935 7670 c-3 -5 1 -10 10 -10 9 0 13 5 10 10 -3 6 -8 10 -10 10 -2
0 -7 -4 -10 -10z"/>
<path d="M3120 7634 c0 -14 4 -23 9 -20 5 3 7 15 4 26 -7 28 -13 25 -13 -6z"/>
<path d="M6945 7590 c3 -5 8 -10 11 -10 2 0 4 5 4 10 0 6 -5 10 -11 10 -5 0
-7 -4 -4 -10z"/>
<path d="M3388 7583 c7 -3 16 -2 19 1 4 3 -2 6 -13 5 -11 0 -14 -3 -6 -6z"/>
<path d="M6864 7555 c20 -14 39 -25 42 -25 3 0 -7 11 -22 25 -15 14 -34 25
-42 25 -8 0 2 -11 22 -25z"/>
<path d="M6870 7517 c0 -8 7 -17 15 -21 8 -3 15 -2 15 3 0 5 -7 14 -15 21 -12
10 -15 10 -15 -3z"/>
<path d="M2594 7446 c2 -6 9 -10 16 -8 11 3 11 0 1 -12 -17 -20 -3 -122 21
-152 5 -7 11 -61 14 -120 7 -141 6 -134 15 -129 4 3 5 21 2 41 -3 20 2 77 11
128 10 50 18 104 20 119 4 36 23 57 32 34 3 -9 10 -14 16 -11 10 7 50 -31 41
-39 -2 -3 0 -14 7 -24 10 -16 10 -16 5 5 -4 12 -3 22 2 22 13 0 44 -62 64
-130 11 -35 15 -40 17 -22 2 13 0 31 -4 40 -10 24 -11 29 -13 59 0 14 -4 24
-7 20 -9 -8 -30 14 -39 42 -4 12 -9 20 -11 18 -3 -2 -34 23 -70 57 -51 47 -75
62 -105 67 -26 3 -38 2 -35 -5z"/>
<path d="M7527 7397 l-36 -33 24 -29 c13 -17 25 -41 25 -55 0 -14 5 -32 11
-40 9 -13 10 -13 8 0 -1 8 1 22 4 30 9 21 37 135 37 149 0 22 -38 10 -73 -22z"/>
<path d="M3481 7391 c-10 -6 -3 -9 22 -8 22 1 32 4 24 9 -16 10 -29 10 -46 -1z"/>
<path d="M2796 7217 c-4 -18 -4 -18 15 -1 23 21 23 21 5 21 -8 0 -17 -9 -20
-20z"/>
<path d="M6004 7229 c-3 -6 -1 -16 4 -21 8 -8 11 -5 9 11 -1 24 -3 25 -13 10z"/>
<path d="M4400 7220 c-9 -6 -10 -10 -3 -10 6 0 15 5 18 10 8 12 4 12 -15 0z"/>
<path d="M4161 7196 c-6 -6 -8 -22 -4 -34 3 -15 1 -22 -8 -22 -11 0 -11 -2 1
-10 20 -12 35 26 19 46 -6 8 -8 14 -3 14 4 0 18 -12 30 -27 19 -24 24 -26 38
-14 20 17 21 31 1 31 -9 0 -12 -6 -9 -17 3 -10 -2 -6 -12 9 -22 33 -39 41 -53
24z"/>
<path d="M4380 7185 c0 -8 -7 -15 -15 -15 -8 0 -15 -4 -15 -10 0 -6 10 -5 25
2 24 11 35 38 15 38 -5 0 -10 -7 -10 -15z"/>
<path d="M4428 7193 c7 -3 16 -2 19 1 4 3 -2 6 -13 5 -11 0 -14 -3 -6 -6z"/>
<path d="M2781 7174 c0 -11 3 -14 6 -6 3 7 2 16 -1 19 -3 4 -6 -2 -5 -13z"/>
<path d="M4464 7172 c6 -10 1 -11 -18 -6 -16 4 -33 0 -47 -10 -22 -15 -22 -15
15 -11 20 3 46 0 57 -5 25 -14 27 11 2 31 -12 10 -15 11 -9 1z"/>
<path d="M5761 7156 c0 -11 3 -15 6 -8 2 6 9 12 15 12 6 0 8 -7 4 -15 -3 -9 3
-19 14 -25 11 -6 20 -20 20 -30 0 -11 5 -20 11 -20 5 0 7 5 4 10 -3 6 1 10 9
10 8 0 18 -4 21 -10 3 -5 15 -10 25 -10 10 0 21 -4 24 -9 4 -5 -4 -7 -16 -3
-19 5 -20 4 -8 -10 8 -9 22 -14 30 -13 8 1 21 -2 28 -8 6 -5 12 -6 12 -3 0 4
9 2 19 -4 14 -7 21 -6 24 3 4 8 6 8 6 0 1 -6 10 -9 24 -6 16 3 18 2 9 -5 -10
-7 -1 -11 30 -16 24 -4 54 -10 68 -13 23 -6 24 -5 8 10 -9 9 -28 17 -43 17
-14 0 -24 4 -21 8 2 4 -3 8 -12 9 -90 6 -201 50 -186 74 3 5 -2 6 -10 3 -10
-4 -16 -1 -16 7 0 12 -2 12 -9 0 -5 -7 -14 -10 -20 -7 -6 4 -8 12 -5 18 4 6 2
8 -3 5 -12 -7 -26 20 -18 33 3 4 -6 10 -20 12 -20 4 -25 1 -24 -16z"/>
<path d="M5871 7169 c12 -8 11 -11 -1 -19 -8 -5 -10 -10 -4 -10 6 0 19 8 28
19 16 18 16 19 -10 19 -18 0 -22 -3 -13 -9z"/>
<path d="M6316 7135 c-3 -8 -1 -15 4 -15 6 0 10 7 10 15 0 8 -2 15 -4 15 -2 0
-6 -7 -10 -15z"/>
<path d="M4405 7122 c-29 -15 -29 -15 -7 -25 16 -8 26 -7 35 2 10 11 7 12 -13
7 l-25 -7 25 15 c14 8 28 12 32 10 5 -3 8 0 8 5 0 15 -19 12 -55 -7z"/>
<path d="M5772 7114 c10 -10 20 -16 22 -13 3 3 -5 11 -17 18 -21 13 -21 12 -5
-5z"/>
<path d="M6180 7121 c0 -18 27 -24 47 -11 17 11 17 11 -1 6 -10 -4 -25 -1 -32
5 -11 9 -14 9 -14 0z"/>
<path d="M6256 7114 c-8 -21 -8 -24 3 -24 5 0 11 9 14 20 6 24 -8 27 -17 4z"/>
<path d="M4317 7072 c5 -11 2 -14 -10 -9 -9 3 -27 2 -39 -4 -21 -8 -20 -9 5
-4 19 4 26 2 22 -5 -3 -5 -15 -10 -26 -10 -10 0 -19 -4 -19 -10 0 -5 -5 -10
-11 -10 -5 0 -7 4 -4 10 4 6 -10 9 -34 7 -21 -1 -37 -5 -34 -9 2 -5 -8 -9 -24
-9 -15 -1 -35 -2 -45 -3 -9 -1 -20 -4 -24 -8 -4 -5 -26 -8 -48 -9 -23 0 -50
-4 -61 -8 -12 -5 10 -8 57 -7 42 0 74 4 72 7 -4 7 51 17 121 23 22 2 53 9 68
15 16 6 33 9 38 5 5 -3 9 -1 9 5 0 5 14 12 30 16 17 4 30 11 30 16 0 12 -17
12 -25 -1 -3 -5 -14 -10 -23 -10 -13 0 -14 2 -4 9 11 6 9 9 -6 13 -16 4 -19 2
-15 -10z"/>
<path d="M7591 7014 c0 -11 3 -14 6 -6 3 7 2 16 -1 19 -3 4 -6 -2 -5 -13z"/>
<path d="M3943 7013 c9 -2 23 -2 30 0 6 3 -1 5 -18 5 -16 0 -22 -2 -12 -5z"/>
<path d="M6175 7011 c-30 -7 -30 -7 -5 -12 30 -6 50 -1 50 12 0 10 -1 10 -45
0z"/>
<path d="M2650 6966 c0 -19 3 -37 8 -40 4 -2 6 13 4 35 -5 48 -12 51 -12 5z"/>
<path d="M2730 6980 c0 -11 2 -20 4 -20 2 0 6 9 9 20 3 11 1 20 -4 20 -5 0 -9
-9 -9 -20z"/>
<path d="M4118 6983 c7 -3 16 -2 19 1 4 3 -2 6 -13 5 -11 0 -14 -3 -6 -6z"/>
<path d="M2886 6953 c-6 -14 -5 -15 5 -6 7 7 10 15 7 18 -3 3 -9 -2 -12 -12z"/>
<path d="M2711 6894 c0 -11 3 -14 6 -6 3 7 2 16 -1 19 -3 4 -6 -2 -5 -13z"/>
<path d="M3052 6875 c0 -16 2 -22 5 -12 2 9 2 23 0 30 -3 6 -5 -1 -5 -18z"/>
<path d="M7194 6746 c-4 -11 0 -24 10 -34 16 -16 17 -15 10 13 -9 38 -12 42
-20 21z"/>
<path d="M3060 6709 c0 -5 5 -7 10 -4 6 3 10 8 10 11 0 2 -4 4 -10 4 -5 0 -10
-5 -10 -11z"/>
<path d="M3066 6605 c-3 -9 -6 -22 -5 -28 0 -7 5 -1 10 12 5 13 8 26 5 28 -2
2 -6 -3 -10 -12z"/>
<path d="M3101 6604 c0 -11 3 -14 6 -6 3 7 2 16 -1 19 -3 4 -6 -2 -5 -13z"/>
<path d="M2843 6568 c13 -32 43 -55 31 -24 -3 9 -10 16 -15 16 -5 0 -9 9 -9
20 0 11 -5 20 -10 20 -6 0 -5 -13 3 -32z"/>
<path d="M2880 6570 c0 -5 5 -10 11 -10 5 0 7 5 4 10 -3 6 -8 10 -11 10 -2 0
-4 -4 -4 -10z"/>
<path d="M3085 6570 c-3 -5 -1 -10 4 -10 6 0 11 5 11 10 0 6 -2 10 -4 10 -3 0
-8 -4 -11 -10z"/>
<path d="M2691 6534 c0 -11 3 -14 6 -6 3 7 2 16 -1 19 -3 4 -6 -2 -5 -13z"/>
<path d="M2885 6470 c-3 -5 -2 -10 4 -10 5 0 13 5 16 10 3 6 2 10 -4 10 -5 0
-13 -4 -16 -10z"/>
<path d="M7340 6459 c0 -5 5 -7 10 -4 6 3 10 8 10 11 0 2 -4 4 -10 4 -5 0 -10
-5 -10 -11z"/>
<path d="M7121 6364 c0 -11 3 -14 6 -6 3 7 2 16 -1 19 -3 4 -6 -2 -5 -13z"/>
<path d="M7147 6356 c-4 -11 -3 -24 3 -30 14 -14 18 -5 10 24 -5 23 -7 23 -13
6z"/>
<path d="M7176 6345 c11 -55 13 -60 27 -46 9 9 9 14 -2 20 -9 6 -11 16 -6 27
6 15 8 16 12 4 3 -8 7 -21 9 -29 8 -24 15 -4 8 23 -6 26 -34 37 -34 14 0 -9
-4 -8 -10 2 -8 11 -9 7 -4 -15z"/>
<path d="M2741 6334 c0 -11 3 -14 6 -6 3 7 2 16 -1 19 -3 4 -6 -2 -5 -13z"/>
<path d="M4491 6280 c-6 -128 0 -145 73 -226 28 -32 59 -55 83 -62 37 -12 102
-55 74 -50 -7 2 -15 -2 -18 -9 -3 -7 3 -10 15 -6 11 2 29 0 40 -6 14 -8 24 -6
38 5 11 9 13 12 5 8 -11 -5 -13 -3 -8 9 3 10 2 17 -3 17 -6 0 -2 8 8 18 10 10
34 18 57 19 32 1 36 0 18 -8 -13 -4 -23 -11 -23 -14 0 -4 4 -4 9 0 14 8 81
-25 117 -58 17 -15 41 -29 53 -30 11 -1 21 -7 21 -13 0 -12 5 -12 104 1 30 4
37 3 33 -8 -4 -12 -1 -12 19 -3 17 8 22 16 17 31 -5 17 -4 18 11 6 11 -9 16
-10 16 -2 0 7 5 9 11 6 6 -4 9 0 7 11 -2 14 2 18 15 16 10 -2 25 2 32 8 8 7
20 8 27 4 10 -6 9 -3 -1 9 -12 15 -11 17 10 19 13 0 30 1 37 1 6 -1 12 4 12
11 0 6 5 4 10 -4 9 -13 11 -13 20 0 8 13 10 12 10 -4 0 -12 5 -16 15 -12 9 3
15 0 15 -9 0 -17 17 -20 22 -4 2 5 15 12 28 13 69 10 200 109 200 153 0 13 -5
10 -19 -12 -10 -16 -28 -39 -40 -49 -21 -19 -21 -19 -45 3 -28 27 -95 44 -134
35 -38 -10 -102 -43 -135 -70 -16 -13 -33 -24 -39 -24 -5 0 -27 -13 -47 -29
-20 -15 -47 -31 -61 -35 -24 -6 -24 -6 3 9 15 9 27 17 27 18 0 4 -88 -2 -145
-11 -62 -10 -85 -7 -85 10 0 5 -10 6 -21 3 -14 -5 -19 -3 -15 3 3 6 -3 13 -14
17 -11 3 -20 10 -20 16 0 5 -42 29 -93 54 -86 42 -99 46 -158 43 -38 -2 -63
-7 -62 -14 1 -5 -7 -15 -17 -21 -15 -10 -22 -7 -43 16 -44 50 -52 74 -58 171
-5 89 -6 91 -8 30z m286 -336 c-3 -3 -12 -4 -19 -1 -8 3 -5 6 6 6 11 1 17 -2
13 -5z m321 -51 c-10 -2 -18 -9 -18 -15 0 -6 -3 -9 -6 -5 -10 10 6 27 24 26
15 -1 15 -2 0 -6z"/>
<path d="M7131 6305 c0 -11 4 -29 9 -40 l9 -20 0 20 c0 11 -4 29 -9 40 l-9 20
0 -20z"/>
<path d="M2752 6280 c0 -14 2 -19 5 -12 2 6 2 18 0 25 -3 6 -5 1 -5 -13z"/>
<path d="M7451 6284 c0 -11 3 -14 6 -6 3 7 2 16 -1 19 -3 4 -6 -2 -5 -13z"/>
<path d="M7442 6240 c0 -14 2 -19 5 -12 2 6 2 18 0 25 -3 6 -5 1 -5 -13z"/>
<path d="M5725 6159 c-4 -6 -5 -12 -2 -15 2 -3 7 2 10 11 7 17 1 20 -8 4z"/>
<path d="M7100 6101 c0 -5 5 -13 10 -16 6 -3 10 -2 10 4 0 5 -4 13 -10 16 -5
3 -10 2 -10 -4z"/>
<path d="M7103 6048 c1 -15 6 -23 11 -18 4 4 4 16 -2 26 -9 16 -10 14 -9 -8z"/>
<path d="M3112 6030 c0 -19 2 -27 5 -17 2 9 2 25 0 35 -3 9 -5 1 -5 -18z"/>
<path d="M3131 5974 c0 -11 3 -14 6 -6 3 7 2 16 -1 19 -3 4 -6 -2 -5 -13z"/>
<path d="M7441 5964 c0 -11 3 -14 6 -6 3 7 2 16 -1 19 -3 4 -6 -2 -5 -13z"/>
<path d="M4875 5950 c3 -5 10 -10 16 -10 5 0 9 5 9 10 0 6 -7 10 -16 10 -8 0
-12 -4 -9 -10z"/>
<path d="M5406 5923 c-6 -14 -5 -15 5 -6 7 7 10 15 7 18 -3 3 -9 -2 -12 -12z"/>
<path d="M5440 5929 c0 -5 5 -7 10 -4 6 3 10 8 10 11 0 2 -4 4 -10 4 -5 0 -10
-5 -10 -11z"/>
<path d="M5425 5900 c-3 -5 -1 -10 4 -10 6 0 11 5 11 10 0 6 -2 10 -4 10 -3 0
-8 -4 -11 -10z"/>
<path d="M4927 5893 c-3 -5 6 -9 20 -10 19 -1 22 1 12 8 -17 11 -26 11 -32 2z"/>
<path d="M3120 5875 c0 -8 4 -15 8 -15 5 0 9 7 9 15 0 8 -4 15 -9 15 -4 0 -8
-7 -8 -15z"/>
<path d="M4787 5869 c4 -13 8 -18 11 -10 2 7 -1 18 -6 23 -8 8 -9 4 -5 -13z"/>
<path d="M4750 5870 c0 -5 5 -10 10 -10 6 0 10 5 10 10 0 6 -4 10 -10 10 -5 0
-10 -4 -10 -10z"/>
<path d="M5500 5870 c-12 -8 -10 -10 8 -10 13 0 20 4 17 10 -7 12 -6 12 -25 0z"/>
<path d="M7090 5859 c0 -11 4 -18 10 -14 5 3 7 12 3 20 -7 21 -13 19 -13 -6z"/>
<path d="M5136 5851 c-3 -5 -16 -7 -29 -5 -22 5 -22 4 1 -6 18 -7 27 -6 38 5
9 8 11 15 5 15 -5 0 -12 -4 -15 -9z"/>
<path d="M5471 5843 c7 -12 15 -20 18 -17 3 2 -3 12 -13 22 -17 16 -18 16 -5
-5z"/>
<path d="M4737 5800 c-9 -11 -13 -20 -8 -20 11 0 35 29 29 35 -2 2 -12 -4 -21
-15z"/>
<path d="M4768 5795 c-25 -34 -22 -43 3 -11 12 15 20 29 18 31 -2 1 -12 -7
-21 -20z"/>
<path d="M7072 5790 c0 -14 2 -19 5 -12 2 6 2 18 0 25 -3 6 -5 1 -5 -13z"/>
<path d="M5075 5770 c-3 -5 -1 -10 4 -10 6 0 11 5 11 10 0 6 -2 10 -4 10 -3 0
-8 -4 -11 -10z"/>
<path d="M5387 5760 c10 -11 19 -20 21 -20 1 0 -2 9 -8 20 -6 11 -15 20 -20
20 -6 0 -2 -9 7 -20z"/>
<path d="M5490 5770 c0 -5 5 -10 11 -10 5 0 7 5 4 10 -3 6 -8 10 -11 10 -2 0
-4 -4 -4 -10z"/>
<path d="M4815 5760 c-3 -5 -1 -10 4 -10 6 0 11 5 11 10 0 6 -2 10 -4 10 -3 0
-8 -4 -11 -10z"/>
<path d="M5198 5763 c7 -3 16 -2 19 1 4 3 -2 6 -13 5 -11 0 -14 -3 -6 -6z"/>
<path d="M4720 5745 c0 -8 2 -15 4 -15 2 0 6 7 10 15 3 8 1 15 -4 15 -6 0 -10
-7 -10 -15z"/>
<path d="M4660 5731 c0 -6 4 -13 10 -16 6 -3 7 1 4 9 -7 18 -14 21 -14 7z"/>
<path d="M5525 5730 c3 -5 8 -10 11 -10 2 0 4 5 4 10 0 6 -5 10 -11 10 -5 0
-7 -4 -4 -10z"/>
<path d="M5190 5719 c0 -5 5 -7 10 -4 6 3 10 8 10 11 0 2 -4 4 -10 4 -5 0 -10
-5 -10 -11z"/>
<path d="M3170 5691 c0 -6 4 -13 10 -16 6 -3 7 1 4 9 -7 18 -14 21 -14 7z"/>
<path d="M5436 5657 c3 -10 9 -15 12 -12 3 3 0 11 -7 18 -10 9 -11 8 -5 -6z"/>
<path d="M5580 5646 c0 -2 8 -10 18 -17 15 -13 16 -12 3 4 -13 16 -21 21 -21
13z"/>
<path d="M5830 5639 c0 -5 5 -7 10 -4 6 3 10 8 10 11 0 2 -4 4 -10 4 -5 0 -10
-5 -10 -11z"/>
<path d="M4684 5625 c-3 -8 -4 -20 -2 -27 3 -7 7 -1 10 15 6 29 1 36 -8 12z"/>
<path d="M4355 5610 c3 -5 8 -10 11 -10 2 0 4 5 4 10 0 6 -5 10 -11 10 -5 0
-7 -4 -4 -10z"/>
<path d="M3168 5584 c-4 -3 1 -26 9 -50 20 -58 25 -53 9 9 -7 26 -15 45 -18
41z"/>
<path d="M4361 5567 c-13 -21 -12 -21 5 -5 10 10 16 20 13 22 -3 3 -11 -5 -18
-17z"/>
<path d="M5840 5551 c0 -5 5 -13 10 -16 6 -3 10 -2 10 4 0 5 -4 13 -10 16 -5
3 -10 2 -10 -4z"/>
<path d="M4185 5520 c3 -5 8 -10 11 -10 2 0 4 5 4 10 0 6 -5 10 -11 10 -5 0
-7 -4 -4 -10z"/>
<path d="M5960 5520 c0 -5 5 -10 11 -10 5 0 7 5 4 10 -3 6 -8 10 -11 10 -2 0
-4 -4 -4 -10z"/>
<path d="M7037 5447 c4 -6 6 -20 4 -31 -1 -11 2 -16 8 -12 16 10 13 43 -5 50
-10 4 -13 2 -7 -7z"/>
<path d="M4768 5444 c-4 -3 0 -17 7 -31 8 -15 12 -30 9 -35 -3 -4 0 -8 7 -8 7
0 9 8 4 23 -4 12 -7 30 -8 40 -1 17 -9 22 -19 11z"/>
<path d="M4190 5429 c0 -5 5 -7 10 -4 6 3 10 8 10 11 0 2 -4 4 -10 4 -5 0 -10
-5 -10 -11z"/>
<path d="M4736 5418 c6 -21 6 -21 -10 -5 -18 18 -41 24 -32 8 4 -5 -10 -7 -31
-4 -24 3 -67 -4 -118 -20 -128 -40 -133 -40 -192 -16 -33 13 -50 25 -43 29 7
5 8 10 3 13 -6 4 -19 0 -29 -8 -16 -11 -21 -11 -35 1 -15 13 -18 13 -32 0 -9
-9 -24 -13 -34 -10 -11 4 -14 3 -7 -3 9 -6 8 -11 -2 -21 -8 -8 -14 -9 -14 -2
0 6 -11 3 -25 -6 -17 -11 -25 -24 -23 -38 2 -14 -2 -20 -12 -18 -8 2 -11 0 -7
-5 5 -4 13 -9 18 -9 5 -1 14 -2 19 -3 6 0 10 -7 10 -15 0 -22 28 -27 35 -7 3
11 16 22 28 25 31 8 39 7 33 -3 -4 -5 3 -7 14 -4 10 3 35 -4 53 -16 19 -12 40
-21 46 -21 7 0 19 -7 27 -15 8 -8 33 -19 54 -25 23 -6 40 -17 40 -25 0 -9 10
-13 28 -13 53 2 71 -2 75 -19 3 -10 5 0 5 22 0 22 -2 34 -5 28 -2 -7 -12 -13
-21 -13 -19 0 -3 20 19 23 8 2 19 6 26 10 6 4 14 3 18 -3 3 -5 2 -10 -2 -10
-5 0 -10 -14 -11 -31 -2 -19 1 -28 8 -24 6 4 17 1 25 -5 9 -8 15 -8 15 -2 0 6
-4 12 -10 14 -5 2 -11 17 -13 34 -2 17 -8 37 -13 45 -5 9 2 8 20 -4 27 -18 28
-18 52 4 13 12 26 20 29 17 3 -3 27 -1 53 4 33 6 74 4 140 -7 51 -9 141 -17
201 -18 62 -1 104 -6 97 -10 -6 -5 -3 -6 9 -2 51 19 125 32 125 24 0 -6 5 -7
12 -3 15 9 65 9 93 -1 16 -6 17 -5 5 4 -11 8 4 10 59 7 58 -3 78 -9 89 -23 12
-15 14 -15 9 -1 -3 9 0 19 8 22 9 3 12 0 8 -10 -6 -17 8 -18 26 -1 11 10 11 8
2 -10 -10 -19 -9 -22 5 -16 14 5 14 3 3 -15 -11 -17 -16 -19 -29 -9 -13 10
-13 10 -2 -5 7 -9 17 -29 22 -45 8 -27 8 -27 9 10 1 21 8 45 16 53 18 19 19
11 3 -17 -11 -17 -10 -23 0 -26 6 -3 10 -9 6 -14 -3 -5 0 -9 5 -9 14 0 14 13
-1 28 -6 6 -9 15 -5 19 4 3 14 -2 22 -13 11 -14 17 -16 23 -7 4 7 21 14 36 15
16 2 31 8 33 15 3 7 12 13 19 13 8 0 17 7 20 15 3 8 15 17 27 21 11 3 30 15
41 26 15 14 28 17 46 12 14 -4 35 -7 47 -7 12 1 21 -4 20 -9 -1 -6 4 -13 11
-15 7 -3 10 1 6 10 -3 10 7 19 33 30 21 9 31 16 23 16 -10 1 -11 4 -3 12 9 9
9 15 0 24 -22 21 -57 36 -69 29 -6 -4 -9 -3 -6 2 4 5 -14 9 -38 10 -24 0 -41
-3 -38 -8 3 -4 -2 -8 -10 -8 -9 0 -16 4 -16 8 0 4 -9 8 -19 8 -11 0 -17 -4
-15 -8 3 -4 -10 -15 -29 -24 -32 -15 -43 -16 -143 0 -107 15 -137 16 -150 4
-3 -4 -12 -4 -19 -2 -7 3 -16 0 -20 -6 -4 -7 -11 -8 -19 -1 -7 6 -17 6 -26 0
-13 -8 -13 -10 0 -19 12 -7 10 -9 -8 -7 -12 0 -22 7 -22 14 0 7 -5 13 -11 13
-6 0 -8 -7 -5 -16 3 -9 2 -12 -5 -9 -5 4 -16 2 -23 -5 -8 -6 -38 -10 -68 -8
-49 3 -54 5 -51 23 4 15 2 17 -5 6 -8 -11 -12 -10 -21 5 -8 14 -11 15 -11 4 0
-11 -4 -10 -16 5 -11 15 -17 17 -23 7 -4 -7 -15 -10 -24 -6 -13 5 -16 2 -11
-10 3 -9 1 -16 -5 -16 -6 0 -11 5 -11 11 0 8 -4 8 -15 -1 -8 -6 -20 -10 -27
-7 -7 3 -4 6 7 7 19 1 19 1 2 15 -11 7 -25 11 -32 9 -7 -3 -23 0 -35 6 -26 14
-40 1 -40 -36 0 -24 -36 -27 -51 -3 -7 11 -9 11 -9 1 0 -10 -11 -12 -45 -6
-28 4 -45 2 -45 -4 0 -14 -43 -2 -53 14 -4 7 -24 16 -43 20 -24 4 -32 9 -23
15 7 4 16 6 20 3 4 -2 1 9 -7 26 -18 35 -28 40 -18 8z m112 -115 c-10 -2 -28
-2 -40 0 -13 2 -5 4 17 4 22 1 32 -1 23 -4z m-163 -43 c-3 -5 -11 -10 -16 -10
-6 0 -7 5 -4 10 3 6 11 10 16 10 6 0 7 -4 4 -10z m-181 -56 c3 -8 2 -12 -4 -9
-6 3 -10 10 -10 16 0 14 7 11 14 -7z"/>
<path d="M4811 5414 c0 -11 3 -14 6 -6 3 7 2 16 -1 19 -3 4 -6 -2 -5 -13z"/>
<path d="M3192 5404 c-11 -12 -10 -14 3 -14 8 0 15 -6 15 -14 0 -8 4 -17 10
-21 7 -4 -5 48 -14 61 -1 1 -7 -4 -14 -12z"/>
<path d="M6030 5416 c0 -2 8 -10 18 -17 15 -13 16 -12 3 4 -13 16 -21 21 -21
13z"/>
<path d="M3230 5391 c0 -5 5 -13 10 -16 6 -3 10 -2 10 4 0 5 -4 13 -10 16 -5
3 -10 2 -10 -4z"/>
<path d="M4990 5375 c-7 -9 -10 -18 -7 -21 3 -3 10 4 17 15 13 25 8 27 -10 6z"/>
<path d="M5500 5379 c0 -5 5 -7 10 -4 6 3 10 8 10 11 0 2 -4 4 -10 4 -5 0 -10
-5 -10 -11z"/>
<path d="M4820 5374 c0 -13 18 -39 24 -34 2 3 -2 14 -10 24 -8 11 -14 16 -14
10z"/>
<path d="M5375 5340 c-3 -5 -1 -10 4 -10 6 0 11 5 11 10 0 6 -2 10 -4 10 -3 0
-8 -4 -11 -10z"/>
<path d="M3225 5270 c3 -5 8 -10 11 -10 2 0 4 5 4 10 0 6 -5 10 -11 10 -5 0
-7 -4 -4 -10z"/>
<path d="M4643 5205 c0 -8 4 -15 9 -15 4 0 8 -16 8 -36 0 -19 4 -33 8 -30 9 5
8 41 -3 74 -8 25 -22 30 -22 7z"/>
<path d="M3269 5178 c5 -13 12 -32 15 -42 4 -10 9 -16 12 -14 6 6 -22 78 -30
78 -3 0 -2 -10 3 -22z"/>
<path d="M4690 5172 c0 -11 5 -24 10 -27 6 -4 9 2 7 14 -4 29 -17 39 -17 13z"/>
<path d="M3560 5170 c0 -5 5 -10 11 -10 5 0 7 5 4 10 -3 6 -8 10 -11 10 -2 0
-4 -4 -4 -10z"/>
<path d="M5601 5164 c0 -11 3 -14 6 -6 3 7 2 16 -1 19 -3 4 -6 -2 -5 -13z"/>
<path d="M5741 5164 c0 -11 3 -14 6 -6 3 7 2 16 -1 19 -3 4 -6 -2 -5 -13z"/>
<path d="M5570 5155 c0 -8 4 -15 10 -15 5 0 7 7 4 15 -4 8 -8 15 -10 15 -2 0
-4 -7 -4 -15z"/>
<path d="M3470 5146 c0 -2 8 -10 18 -17 15 -13 16 -12 3 4 -13 16 -21 21 -21
13z"/>
<path d="M3540 5091 c0 -6 4 -13 10 -16 6 -3 7 1 4 9 -7 18 -14 21 -14 7z"/>
<path d="M4955 4950 c-12 -19 5 -27 56 -26 40 2 47 0 30 -8 -11 -5 -21 -16
-21 -25 0 -12 3 -12 12 -3 7 7 21 12 33 12 15 0 17 -2 6 -9 -9 -6 -1 -10 25
-13 47 -6 48 -6 34 24 -10 20 -10 21 3 6 8 -10 17 -15 21 -11 3 4 12 0 19 -9
16 -21 38 -27 62 -17 19 7 18 8 -3 8 -22 1 -22 2 -7 18 14 14 18 14 26 2 7
-11 9 -10 9 5 0 11 5 16 14 13 13 -5 14 -1 6 33 0 3 -5 -3 -11 -13 -10 -18
-11 -18 -24 -1 -14 20 -101 28 -122 12 -8 -6 -28 -6 -56 -1 -33 7 -46 6 -55
-4 -11 -11 -16 -11 -28 2 -18 18 -21 18 -29 5z m155 -50 c0 -5 -5 -10 -11 -10
-5 0 -7 5 -4 10 3 6 8 10 11 10 2 0 4 -4 4 -10z m84 -6 c3 -8 2 -12 -4 -9 -6
3 -10 10 -10 16 0 14 7 11 14 -7z"/>
<path d="M6769 4933 c-13 -16 -12 -17 4 -4 9 7 17 15 17 17 0 8 -8 3 -21 -13z"/>
<path d="M3490 4923 c0 -5 11 -20 25 -33 14 -13 25 -21 25 -17 0 3 -11 18 -25
33 -14 15 -25 23 -25 17z"/>
<path d="M5324 4916 c11 -9 24 -16 30 -16 12 0 7 5 -24 19 -24 11 -24 11 -6
-3z"/>
<path d="M3460 4911 c0 -5 7 -14 15 -21 9 -7 14 -19 11 -26 -5 -12 13 -24 48
-31 16 -3 17 -1 6 12 -7 9 -20 13 -29 10 -8 -3 -12 -3 -8 1 3 4 -1 20 -10 35
-17 28 -33 38 -33 20z"/>
<path d="M6724 4898 l-19 -23 23 19 c12 11 22 21 22 23 0 8 -8 2 -26 -19z"/>
<path d="M3566 4880 c7 -28 12 -35 18 -29 2 2 -2 15 -10 29 l-15 25 7 -25z"/>
<path d="M3680 4883 c0 -6 8 -17 18 -24 16 -13 16 -13 2 6 -8 11 -16 22 -17
24 -2 2 -3 0 -3 -6z"/>
<path d="M5270 4880 c-13 -8 -13 -10 2 -10 9 0 20 5 23 10 8 13 -5 13 -25 0z"/>
<path d="M5310 4876 c0 -2 11 -6 25 -8 14 -3 25 -1 25 3 0 5 -11 9 -25 9 -14
0 -25 -2 -25 -4z"/>
<path d="M3680 4842 c6 -13 14 -21 18 -18 3 4 -2 14 -12 24 -18 16 -18 16 -6
-6z"/>
<path d="M6594 4818 l-19 -23 23 19 c12 11 22 21 22 23 0 8 -8 2 -26 -19z"/>
<path d="M3646 4817 c3 -10 9 -15 12 -12 3 3 0 11 -7 18 -10 9 -11 8 -5 -6z"/>
<path d="M3520 4811 c0 -6 4 -13 10 -16 6 -3 7 1 4 9 -7 18 -14 21 -14 7z"/>
<path d="M3556 4795 c9 -14 21 -25 27 -25 6 0 0 11 -13 25 -13 14 -25 25 -27
25 -2 0 4 -11 13 -25z"/>
<path d="M3640 4785 c13 -14 25 -25 27 -25 9 0 -33 49 -41 50 -5 0 1 -11 14
-25z"/>
<path d="M6520 4800 c-9 -6 -10 -10 -3 -10 6 0 15 5 18 10 8 12 4 12 -15 0z"/>
<path d="M3670 4793 c0 -13 29 -38 35 -31 3 3 -4 13 -15 23 -11 10 -20 13 -20
8z"/>
<path d="M6535 4758 c-10 -18 -20 -27 -23 -20 -2 7 -8 10 -13 6 -11 -6 -12
-24 -1 -23 19 3 32 -2 30 -12 -2 -6 3 -14 10 -16 11 -4 12 -1 2 17 -9 17 -8
26 5 47 9 13 15 26 13 29 -2 2 -13 -11 -23 -28z"/>
<path d="M3750 4751 c0 -5 7 -15 17 -22 15 -13 15 -12 4 9 -12 23 -21 28 -21
13z"/>
<path d="M6454 4739 c-19 -22 -19 -22 4 -10 12 6 22 16 22 21 0 15 -5 12 -26
-11z"/>
<path d="M3690 4745 c0 -14 47 -71 54 -64 3 3 -8 21 -24 40 -16 19 -29 30 -30
24z"/>
<path d="M6465 4710 c-3 -5 -1 -10 4 -10 6 0 11 5 11 10 0 6 -2 10 -4 10 -3 0
-8 -4 -11 -10z"/>
<path d="M3770 4690 c0 -5 5 -10 11 -10 5 0 7 5 4 10 -3 6 -8 10 -11 10 -2 0
-4 -4 -4 -10z"/>
<path d="M6476 4659 c-18 -17 -18 -19 -2 -19 9 0 19 7 23 15 8 23 0 25 -21 4z"/>
<path d="M3766 4655 c4 -8 11 -15 16 -15 6 0 5 6 -2 15 -7 8 -14 15 -16 15 -2
0 -1 -7 2 -15z"/>
<path d="M6297 4631 c-4 -17 -3 -21 5 -13 5 5 8 16 6 23 -3 8 -7 3 -11 -10z"/>
<path d="M3805 4620 c3 -5 8 -10 11 -10 2 0 4 5 4 10 0 6 -5 10 -11 10 -5 0
-7 -4 -4 -10z"/>
<path d="M3850 4628 c0 -3 9 -27 20 -52 20 -47 37 -64 24 -24 -7 24 -44 87
-44 76z"/>
<path d="M6200 4581 c0 -7 -5 -9 -12 -5 -7 5 -8 3 -3 -5 5 -9 10 -10 18 -2 6
6 8 14 4 18 -4 3 -7 1 -7 -6z"/>
<path d="M6285 4571 c-3 -12 -11 -19 -16 -16 -5 4 -9 1 -9 -4 0 -6 4 -11 10
-11 11 0 34 39 27 47 -3 2 -8 -5 -12 -16z"/>
<path d="M3841 4551 c-17 -11 -4 -34 15 -27 8 3 14 1 14 -4 0 -6 5 -10 11 -10
8 0 8 5 -1 15 -7 8 -17 12 -23 8 -6 -4 -8 0 -4 10 7 19 7 20 -12 8z"/>
<path d="M3941 4523 c-1 -12 4 -25 9 -28 12 -7 12 2 0 30 -8 19 -9 19 -9 -2z"/>
<path d="M4010 4506 c0 -2 7 -7 16 -10 8 -3 12 -2 9 4 -6 10 -25 14 -25 6z"/>
<path d="M3970 4464 c0 -7 8 -22 18 -34 16 -20 19 -21 25 -7 3 9 2 16 -3 14
-5 -1 -16 7 -24 18 -8 11 -16 15 -16 9z"/>
<path d="M4033 4404 c-15 -16 -16 -24 -4 -24 8 0 24 30 19 35 -2 2 -9 -3 -15
-11z"/>
<path d="M4120 4378 c0 -9 5 -20 10 -23 13 -8 13 5 0 25 -8 13 -10 13 -10 -2z"/>
<path d="M5990 4309 c0 -5 5 -7 10 -4 6 3 10 8 10 11 0 2 -4 4 -10 4 -5 0 -10
-5 -10 -11z"/>
<path d="M4180 4300 c0 -5 5 -10 11 -10 5 0 7 5 4 10 -3 6 -8 10 -11 10 -2 0
-4 -4 -4 -10z"/>
<path d="M5930 4275 c0 -5 5 -17 10 -25 5 -8 10 -10 10 -5 0 6 -5 17 -10 25
-5 8 -10 11 -10 5z"/>
<path d="M4180 4250 c0 -5 5 -10 10 -10 6 0 10 5 10 10 0 6 -4 10 -10 10 -5 0
-10 -4 -10 -10z"/>
<path d="M5670 4220 c-9 -6 -10 -10 -3 -10 6 0 15 5 18 10 8 12 4 12 -15 0z"/>
<path d="M5940 4211 c0 -6 5 -13 10 -16 6 -3 10 1 10 9 0 9 -4 16 -10 16 -5 0
-10 -4 -10 -9z"/>
<path d="M5850 4161 c0 -5 5 -13 10 -16 6 -3 10 -2 10 4 0 5 -4 13 -10 16 -5
3 -10 2 -10 -4z"/>
<path d="M4405 4150 c-16 -7 -17 -9 -3 -9 9 -1 20 4 23 9 7 11 7 11 -20 0z"/>
<path d="M4565 4150 c3 -5 8 -10 11 -10 2 0 4 5 4 10 0 6 -5 10 -11 10 -5 0
-7 -4 -4 -10z"/>
<path d="M4384 4068 c0 -10 1 -18 3 -18 1 0 7 8 12 18 7 13 6 19 -2 19 -7 0
-13 -9 -13 -19z"/>
<path d="M4635 4050 c-3 -5 -1 -10 4 -10 6 0 11 5 11 10 0 6 -2 10 -4 10 -3 0
-8 -4 -11 -10z"/>
<path d="M4490 4046 c0 -2 8 -10 18 -17 15 -13 16 -12 3 4 -13 16 -21 21 -21
13z"/>
<path d="M4580 4030 c0 -5 5 -10 11 -10 5 0 7 5 4 10 -3 6 -8 10 -11 10 -2 0
-4 -4 -4 -10z"/>
<path d="M5656 4011 c-4 -6 -3 -11 3 -11 6 0 8 -7 5 -15 -10 -25 10 -16 23 10
6 14 7 25 2 25 -5 0 -9 -6 -9 -12 0 -10 -3 -9 -9 1 -6 9 -11 10 -15 2z"/>
<path d="M4707 3999 c7 -7 15 -10 18 -7 3 3 -2 9 -12 12 -14 6 -15 5 -6 -5z"/>
<path d="M4541 3984 c0 -11 3 -14 6 -6 3 7 2 16 -1 19 -3 4 -6 -2 -5 -13z"/>
<path d="M4776 3981 c-3 -5 1 -11 9 -14 9 -4 12 -1 8 9 -6 16 -10 17 -17 5z"/>
<path d="M4585 3960 c3 -5 8 -10 11 -10 2 0 4 5 4 10 0 6 -5 10 -11 10 -5 0
-7 -4 -4 -10z"/>
<path d="M5455 3960 c-3 -5 -1 -10 4 -10 6 0 11 5 11 10 0 6 -2 10 -4 10 -3 0
-8 -4 -11 -10z"/>
<path d="M5561 3959 c-13 -5 -22 -11 -20 -14 8 -7 49 7 49 16 0 5 -1 9 -2 8
-2 0 -14 -5 -27 -10z"/>
<path d="M5505 3920 c-10 -11 -15 -20 -11 -20 11 0 39 30 34 36 -3 2 -13 -5
-23 -16z"/>
<path d="M4725 3920 c3 -5 13 -10 21 -10 8 0 12 5 9 10 -3 6 -13 10 -21 10 -8
0 -12 -4 -9 -10z"/>
<path d="M5380 3900 c-6 -11 -8 -20 -6 -20 3 0 10 9 16 20 6 11 8 20 6 20 -3
0 -10 -9 -16 -20z"/>
<path d="M4968 3893 c7 -3 16 -2 19 1 4 3 -2 6 -13 5 -11 0 -14 -3 -6 -6z"/>
</g>
</svg>
